<svg id="svg" version="1.1" xmlns="http://www.w3.org/2000/svg" xmlns:xlink="http://www.w3.org/1999/xlink" width="400" height="400" viewBox="0, 0, 400,400"><g id="svgg"><path id="path0" d="M266.400 105.200 C 265.855 105.956,265.365 106.000,257.400 106.000 C 249.435 106.000,248.945 106.044,248.400 106.800 C 247.898 107.496,247.365 107.600,244.283 107.600 C 241.670 107.600,240.586 107.757,240.143 108.200 C 239.710 108.632,238.657 108.800,236.371 108.800 C 234.524 108.800,233.200 108.967,233.200 109.200 C 233.200 109.420,232.840 109.600,232.400 109.600 C 231.960 109.600,231.600 109.780,231.600 110.000 C 231.600 110.220,230.880 110.400,230.000 110.400 C 229.120 110.400,228.400 110.580,228.400 110.800 C 228.400 111.020,227.896 111.200,227.280 111.200 C 226.064 111.200,224.008 112.016,224.003 112.500 C 224.001 112.665,223.460 112.800,222.800 112.800 C 222.140 112.800,221.600 112.980,221.600 113.200 C 221.600 113.420,221.060 113.600,220.400 113.600 C 219.740 113.600,219.200 113.780,219.200 114.000 C 219.200 114.220,218.660 114.400,218.000 114.400 C 217.340 114.400,216.800 114.580,216.800 114.800 C 216.800 115.020,216.440 115.200,216.000 115.200 C 215.560 115.200,215.200 115.380,215.200 115.600 C 215.200 115.820,214.480 116.000,213.600 116.000 C 212.267 116.000,212.000 116.133,212.000 116.800 C 212.000 117.464,211.733 117.600,210.427 117.600 C 209.205 117.600,208.797 117.779,208.600 118.400 C 208.428 118.941,207.995 119.200,207.261 119.200 C 206.635 119.200,205.933 119.538,205.600 120.000 C 205.282 120.441,204.565 120.800,204.000 120.800 C 203.435 120.800,202.718 121.159,202.400 121.600 C 202.083 122.040,201.503 122.400,201.112 122.400 C 200.720 122.400,200.400 122.580,200.400 122.800 C 200.400 123.020,200.040 123.200,199.600 123.200 C 199.160 123.200,198.800 123.380,198.800 123.600 C 198.800 123.820,198.522 124.000,198.183 124.000 C 197.843 124.000,197.080 124.450,196.487 125.000 C 195.893 125.550,195.131 126.000,194.792 126.000 C 194.454 126.000,193.917 126.360,193.600 126.800 C 193.283 127.240,192.613 127.600,192.112 127.600 C 191.467 127.600,191.200 127.834,191.200 128.400 C 191.200 128.900,190.933 129.200,190.488 129.200 C 190.097 129.200,189.517 129.560,189.200 130.000 C 188.883 130.440,188.303 130.800,187.912 130.800 C 187.467 130.800,187.200 131.100,187.200 131.600 C 187.200 132.057,186.933 132.400,186.578 132.400 C 186.236 132.400,184.896 133.480,183.600 134.800 C 182.304 136.120,181.059 137.200,180.832 137.200 C 180.268 137.200,175.200 142.183,175.200 142.738 C 175.200 142.982,174.210 144.173,173.000 145.383 C 170.557 147.826,169.839 150.400,171.600 150.400 C 172.133 150.400,172.400 150.133,172.400 149.600 C 172.400 149.100,172.667 148.800,173.112 148.800 C 173.503 148.800,174.083 148.440,174.400 148.000 C 174.717 147.560,175.131 147.200,175.320 147.200 C 175.508 147.200,176.354 146.480,177.200 145.600 C 178.046 144.720,179.021 144.000,179.369 144.000 C 179.716 144.000,180.000 143.820,180.000 143.600 C 180.000 143.380,180.320 143.200,180.712 143.200 C 181.103 143.200,181.683 142.840,182.000 142.400 C 182.317 141.960,182.852 141.599,183.188 141.598 C 183.525 141.596,184.316 141.326,184.946 140.998 C 185.576 140.669,186.301 140.400,186.557 140.400 C 186.814 140.400,187.283 140.040,187.600 139.600 C 187.918 139.159,188.635 138.800,189.200 138.800 C 189.765 138.800,190.482 138.441,190.800 138.000 C 191.117 137.560,191.787 137.200,192.288 137.200 C 192.933 137.200,193.200 136.966,193.200 136.400 C 193.200 135.707,193.467 135.600,195.200 135.600 C 196.745 135.600,197.200 135.458,197.200 134.976 C 197.200 134.633,197.380 134.464,197.600 134.600 C 197.820 134.736,198.000 134.657,198.000 134.424 C 198.000 134.191,198.360 134.000,198.800 134.000 C 199.240 134.000,199.600 133.820,199.600 133.600 C 199.600 133.380,200.140 133.200,200.800 133.200 C 201.460 133.200,202.000 133.020,202.000 132.800 C 202.000 132.580,202.360 132.400,202.800 132.400 C 203.240 132.400,203.600 132.220,203.600 132.000 C 203.600 131.780,204.140 131.600,204.800 131.600 C 205.460 131.600,206.000 131.420,206.000 131.200 C 206.000 130.980,206.349 130.800,206.776 130.800 C 207.203 130.800,207.664 130.620,207.800 130.400 C 207.936 130.180,208.397 130.000,208.824 130.000 C 209.251 130.000,209.600 129.820,209.600 129.600 C 209.600 129.380,210.140 129.200,210.800 129.200 C 211.460 129.200,212.000 129.020,212.000 128.800 C 212.000 128.580,212.680 128.400,213.512 128.400 C 214.565 128.400,215.198 128.157,215.600 127.600 C 216.092 126.918,216.635 126.800,219.288 126.800 C 222.133 126.800,222.400 126.731,222.400 126.000 C 222.400 125.275,222.667 125.200,225.229 125.200 C 227.210 125.200,228.237 125.020,228.657 124.600 C 229.089 124.168,230.142 124.000,232.416 124.000 C 234.834 124.000,235.910 123.812,237.000 123.200 C 238.160 122.549,239.166 122.400,242.412 122.400 C 244.804 122.400,246.400 122.240,246.400 122.000 C 246.400 121.760,248.000 121.600,250.400 121.600 C 252.800 121.600,254.400 121.440,254.400 121.200 C 254.400 120.943,258.533 120.800,266.000 120.800 C 273.467 120.800,277.600 120.943,277.600 121.200 C 277.600 121.440,279.192 121.600,281.576 121.600 C 283.796 121.600,285.662 121.777,285.800 122.000 C 285.936 122.220,287.567 122.400,289.424 122.400 C 291.281 122.400,292.800 122.559,292.800 122.753 C 292.800 122.947,293.561 123.116,294.492 123.129 C 295.423 123.142,296.248 123.343,296.325 123.576 C 296.411 123.832,297.878 124.000,300.033 124.000 C 302.937 124.000,303.600 124.112,303.600 124.600 C 303.600 125.080,304.200 125.200,306.600 125.200 C 309.333 125.200,309.600 125.271,309.600 126.000 C 309.600 126.711,309.867 126.800,312.000 126.800 C 313.333 126.800,314.400 126.978,314.400 127.200 C 314.400 127.420,314.760 127.600,315.200 127.600 C 315.640 127.600,316.000 127.780,316.000 128.000 C 316.000 128.220,316.720 128.400,317.600 128.400 C 318.480 128.400,319.200 128.580,319.200 128.800 C 319.200 129.020,319.560 129.200,320.000 129.200 C 320.440 129.200,320.800 129.380,320.800 129.600 C 320.800 129.820,321.340 130.000,322.000 130.000 C 322.660 130.000,323.200 130.180,323.200 130.400 C 323.200 130.620,323.560 130.800,324.000 130.800 C 324.440 130.800,324.800 130.980,324.800 131.200 C 324.800 131.420,325.250 131.600,325.800 131.600 C 326.350 131.600,326.800 131.780,326.800 132.000 C 326.800 132.220,327.160 132.400,327.600 132.400 C 328.040 132.400,328.400 132.580,328.400 132.800 C 328.400 133.020,328.760 133.200,329.200 133.200 C 329.640 133.200,330.000 133.380,330.000 133.600 C 330.000 133.820,330.540 134.000,331.200 134.000 C 332.133 134.000,332.400 134.178,332.400 134.800 C 332.400 135.467,332.667 135.600,334.000 135.600 C 335.333 135.600,335.600 135.733,335.600 136.400 C 335.600 137.067,335.867 137.200,337.200 137.200 C 338.533 137.200,338.800 137.333,338.800 138.000 C 338.800 138.533,339.067 138.800,339.600 138.800 C 340.040 138.800,340.400 138.980,340.400 139.200 C 340.400 139.420,340.642 139.600,340.938 139.600 C 341.234 139.600,341.787 139.944,342.167 140.364 C 342.548 140.784,343.296 141.238,343.829 141.372 C 344.363 141.506,344.800 141.792,344.800 142.008 C 344.800 142.223,345.120 142.400,345.512 142.400 C 345.903 142.400,346.483 142.760,346.800 143.200 C 347.117 143.640,347.617 144.000,347.912 144.000 C 348.206 144.000,348.336 144.180,348.200 144.400 C 348.064 144.620,348.242 144.800,348.596 144.800 C 348.949 144.800,350.481 146.060,352.000 147.600 C 353.519 149.140,354.964 150.400,355.212 150.400 C 355.460 150.400,356.324 151.114,357.131 151.987 C 359.315 154.347,359.600 154.722,359.600 155.229 C 359.600 155.721,362.791 158.800,363.300 158.800 C 363.465 158.800,363.600 159.263,363.600 159.829 C 363.600 160.986,364.427 162.000,365.371 162.000 C 365.803 162.000,366.000 162.376,366.000 163.200 C 366.000 163.860,366.180 164.400,366.400 164.400 C 366.620 164.400,366.800 164.760,366.800 165.200 C 366.800 165.640,366.980 166.000,367.200 166.000 C 367.420 166.000,367.600 166.360,367.600 166.800 C 367.600 167.240,367.780 167.600,368.000 167.600 C 368.220 167.600,368.400 167.960,368.400 168.400 C 368.400 168.840,368.580 169.200,368.800 169.200 C 369.020 169.200,369.200 169.560,369.200 170.000 C 369.200 170.440,369.380 170.800,369.600 170.800 C 369.820 170.800,370.000 171.172,370.000 171.627 C 370.000 173.332,372.178 172.463,372.324 170.700 C 372.396 169.832,372.270 169.200,372.024 169.200 C 371.772 169.200,371.600 168.224,371.600 166.800 C 371.600 165.467,371.422 164.400,371.200 164.400 C 370.980 164.400,370.800 163.781,370.800 163.024 C 370.800 162.267,370.620 161.536,370.400 161.400 C 370.180 161.264,370.000 160.803,370.000 160.376 C 370.000 159.949,369.820 159.600,369.600 159.600 C 369.380 159.600,369.200 159.150,369.200 158.600 C 369.200 158.050,369.020 157.600,368.800 157.600 C 368.580 157.600,368.400 157.060,368.400 156.400 C 368.400 155.740,368.220 155.200,368.000 155.200 C 367.780 155.200,367.600 154.840,367.600 154.400 C 367.600 153.960,367.420 153.600,367.200 153.600 C 366.980 153.600,366.800 153.240,366.800 152.800 C 366.800 152.360,366.620 152.000,366.400 152.000 C 366.180 152.000,366.000 151.460,366.000 150.800 C 366.000 150.140,365.820 149.600,365.600 149.600 C 365.380 149.600,365.200 149.240,365.200 148.800 C 365.200 148.360,365.020 148.000,364.800 148.000 C 364.580 148.000,364.400 147.640,364.400 147.200 C 364.400 146.667,364.133 146.400,363.600 146.400 C 363.007 146.400,362.800 146.133,362.800 145.371 C 362.800 144.314,361.889 143.044,361.448 143.486 C 361.311 143.622,361.200 143.433,361.200 143.067 C 361.200 142.700,361.020 142.400,360.800 142.400 C 360.580 142.400,360.400 142.202,360.400 141.960 C 360.400 141.719,359.860 141.017,359.200 140.400 C 358.540 139.783,358.000 138.991,358.000 138.640 C 358.000 138.288,357.814 138.000,357.587 138.000 C 356.942 138.000,354.400 135.299,354.400 134.613 C 354.400 134.267,354.052 134.000,353.600 134.000 C 353.067 134.000,352.800 133.733,352.800 133.200 C 352.800 132.667,352.533 132.400,352.000 132.400 C 351.467 132.400,351.200 132.133,351.200 131.600 C 351.200 131.100,350.933 130.800,350.488 130.800 C 350.097 130.800,349.517 130.440,349.200 130.000 C 348.883 129.560,348.303 129.200,347.912 129.200 C 347.467 129.200,347.200 128.900,347.200 128.400 C 347.200 127.934,346.933 127.600,346.560 127.600 C 346.209 127.600,345.408 127.051,344.782 126.380 C 344.155 125.709,343.498 125.167,343.321 125.176 C 342.561 125.211,341.352 124.631,340.753 123.943 C 340.397 123.534,339.852 123.200,339.541 123.200 C 339.231 123.200,338.717 122.840,338.400 122.400 C 338.083 121.960,337.503 121.600,337.112 121.600 C 336.720 121.600,336.400 121.420,336.400 121.200 C 336.400 120.980,336.080 120.800,335.688 120.800 C 335.297 120.800,334.717 120.440,334.400 120.000 C 334.082 119.559,333.365 119.200,332.800 119.200 C 332.235 119.200,331.518 118.841,331.200 118.400 C 330.798 117.843,330.165 117.600,329.112 117.600 C 327.867 117.600,327.600 117.459,327.600 116.800 C 327.600 116.125,327.333 116.000,325.888 116.000 C 324.635 116.000,324.022 115.786,323.600 115.200 C 323.261 114.730,322.565 114.400,321.912 114.400 C 321.300 114.400,320.800 114.220,320.800 114.000 C 320.800 113.780,320.440 113.600,320.000 113.600 C 319.560 113.600,319.200 113.420,319.200 113.200 C 319.200 112.980,318.660 112.800,318.000 112.800 C 317.340 112.800,316.800 112.620,316.800 112.400 C 316.800 112.180,316.260 112.000,315.600 112.000 C 314.940 112.000,314.400 111.820,314.400 111.600 C 314.400 111.380,313.860 111.200,313.200 111.200 C 312.540 111.200,312.000 111.020,312.000 110.800 C 312.000 110.580,311.368 110.400,310.595 110.400 C 309.822 110.400,308.877 110.241,308.495 110.047 C 306.631 109.099,305.568 108.842,302.816 108.675 C 301.125 108.573,299.767 108.301,299.682 108.047 C 299.586 107.758,298.136 107.600,295.567 107.600 C 291.867 107.600,291.600 107.546,291.600 106.800 C 291.600 106.024,291.333 106.000,282.888 106.000 C 274.635 106.000,274.146 105.958,273.600 105.200 C 273.111 104.521,272.565 104.400,270.000 104.400 C 267.435 104.400,266.889 104.521,266.400 105.200 M255.600 128.400 C 255.060 129.149,254.565 129.200,247.800 129.200 C 241.035 129.200,240.540 129.251,240.000 130.000 C 239.485 130.715,238.965 130.800,235.112 130.800 C 231.067 130.800,230.800 130.849,230.800 131.600 C 230.800 132.329,230.533 132.400,227.800 132.400 C 226.067 132.400,224.800 132.569,224.800 132.800 C 224.800 133.020,224.440 133.200,224.000 133.200 C 223.560 133.200,223.200 133.380,223.200 133.600 C 223.200 133.820,222.300 134.000,221.200 134.000 C 220.100 134.000,219.200 134.180,219.200 134.400 C 219.200 134.620,218.660 134.800,218.000 134.800 C 217.340 134.800,216.800 134.980,216.800 135.200 C 216.800 135.420,216.260 135.600,215.600 135.600 C 214.940 135.600,214.400 135.780,214.400 136.000 C 214.400 136.220,213.720 136.400,212.888 136.400 C 211.835 136.400,211.202 136.643,210.800 137.200 C 210.349 137.826,209.765 138.000,208.112 138.000 C 206.267 138.000,206.000 138.101,206.000 138.800 C 206.000 139.493,205.733 139.600,204.000 139.600 C 202.267 139.600,202.000 139.707,202.000 140.400 C 202.000 141.062,201.733 141.200,200.449 141.200 C 199.558 141.200,198.686 141.455,198.400 141.800 C 198.126 142.130,197.384 142.400,196.751 142.400 C 196.118 142.400,195.599 142.535,195.597 142.700 C 195.593 143.059,193.656 144.000,192.920 144.000 C 192.634 144.000,192.400 144.180,192.400 144.400 C 192.400 144.620,192.130 144.800,191.800 144.800 C 191.470 144.800,191.200 144.980,191.200 145.200 C 191.200 145.420,190.880 145.600,190.488 145.600 C 190.097 145.600,189.517 145.960,189.200 146.400 C 188.883 146.840,188.303 147.200,187.912 147.200 C 187.520 147.200,187.200 147.380,187.200 147.600 C 187.200 147.820,186.880 148.000,186.488 148.000 C 186.097 148.000,185.517 148.360,185.200 148.800 C 184.861 149.270,184.165 149.600,183.512 149.600 C 182.667 149.600,182.400 149.792,182.400 150.400 C 182.400 151.022,182.133 151.200,181.200 151.200 C 180.267 151.200,180.000 151.378,180.000 152.000 C 180.000 152.593,179.733 152.800,178.969 152.800 C 178.288 152.800,177.414 153.345,176.400 154.400 C 175.554 155.280,174.669 156.000,174.431 156.000 C 174.194 156.000,174.000 156.360,174.000 156.800 C 174.000 157.254,173.733 157.600,173.383 157.600 C 172.754 157.600,172.299 157.910,170.599 159.500 C 170.070 159.995,169.467 160.400,169.261 160.400 C 168.941 160.400,168.400 161.300,168.400 161.833 C 168.400 162.397,170.715 161.874,171.200 161.200 C 171.602 160.643,172.235 160.400,173.288 160.400 C 174.120 160.400,174.779 160.265,174.753 160.100 C 174.608 159.183,174.902 158.800,175.751 158.800 C 176.274 158.800,176.926 158.530,177.200 158.200 C 177.477 157.867,178.348 157.600,179.161 157.600 C 180.165 157.600,180.804 157.349,181.200 156.800 C 181.602 156.243,182.235 156.000,183.288 156.000 C 184.120 156.000,184.800 155.820,184.800 155.600 C 184.800 155.380,185.239 155.200,185.776 155.200 C 186.313 155.200,186.864 155.020,187.000 154.800 C 187.136 154.580,187.597 154.400,188.024 154.400 C 188.451 154.400,188.800 154.220,188.800 154.000 C 188.800 153.780,189.340 153.600,190.000 153.600 C 190.660 153.600,191.200 153.420,191.200 153.200 C 191.200 152.980,191.650 152.800,192.200 152.800 C 192.750 152.800,193.200 152.620,193.200 152.400 C 193.200 152.180,193.920 152.000,194.800 152.000 C 195.680 152.000,196.400 151.820,196.400 151.600 C 196.400 151.380,196.940 151.200,197.600 151.200 C 198.260 151.200,198.800 151.020,198.800 150.800 C 198.800 150.567,200.133 150.400,202.000 150.400 C 204.933 150.400,205.200 150.333,205.200 149.600 C 205.200 148.864,205.467 148.800,208.512 148.800 C 211.365 148.800,211.903 148.689,212.400 148.000 C 212.920 147.278,213.435 147.200,217.688 147.200 C 220.563 147.200,222.400 147.044,222.400 146.800 C 222.400 146.580,222.760 146.400,223.200 146.400 C 223.640 146.400,224.000 146.220,224.000 146.000 C 224.000 145.739,230.141 145.600,241.624 145.600 C 253.271 145.600,259.163 145.736,259.000 146.000 C 258.864 146.220,259.123 146.400,259.576 146.400 C 260.029 146.400,260.400 146.580,260.400 146.800 C 260.400 147.046,262.400 147.200,265.600 147.200 C 270.533 147.200,270.800 147.241,270.800 148.000 C 270.800 148.729,271.067 148.800,273.800 148.800 C 276.098 148.800,276.800 148.930,276.800 149.357 C 276.800 150.127,277.698 150.400,280.233 150.400 C 281.425 150.400,282.400 150.580,282.400 150.800 C 282.400 151.020,282.940 151.200,283.600 151.200 C 284.260 151.200,284.800 151.380,284.800 151.600 C 284.800 151.820,285.520 152.000,286.400 152.000 C 287.280 152.000,288.000 152.180,288.000 152.400 C 288.000 152.620,288.360 152.800,288.800 152.800 C 289.240 152.800,289.600 152.980,289.600 153.200 C 289.600 153.420,290.039 153.600,290.576 153.600 C 291.113 153.600,291.664 153.780,291.800 154.000 C 291.936 154.220,292.487 154.400,293.024 154.400 C 293.561 154.400,294.000 154.580,294.000 154.800 C 294.000 155.020,294.360 155.200,294.800 155.200 C 295.240 155.200,295.600 155.380,295.600 155.600 C 295.600 155.820,295.960 156.000,296.400 156.000 C 296.840 156.000,297.200 156.180,297.200 156.400 C 297.200 156.620,297.560 156.800,298.000 156.800 C 298.440 156.800,298.800 156.980,298.800 157.200 C 298.800 157.420,299.318 157.600,299.951 157.600 C 300.584 157.600,301.326 157.870,301.600 158.200 C 301.874 158.530,302.434 158.800,302.846 158.800 C 303.257 158.800,303.818 159.160,304.093 159.600 C 304.379 160.059,305.026 160.400,305.608 160.400 C 306.166 160.400,306.883 160.760,307.200 161.200 C 307.517 161.640,307.967 162.000,308.200 162.000 C 308.433 162.000,308.883 162.360,309.200 162.800 C 309.517 163.240,310.057 163.600,310.400 163.600 C 310.743 163.600,311.283 163.960,311.600 164.400 C 311.917 164.840,312.419 165.200,312.714 165.200 C 313.010 165.200,314.129 166.100,315.200 167.200 C 316.271 168.300,317.430 169.200,317.774 169.200 C 318.133 169.200,318.400 169.541,318.400 170.000 C 318.400 170.533,318.667 170.800,319.200 170.800 C 319.733 170.800,320.000 171.067,320.000 171.600 C 320.000 172.133,320.267 172.400,320.800 172.400 C 321.300 172.400,321.600 172.667,321.600 173.112 C 321.600 173.503,321.977 174.088,322.437 174.412 C 324.120 175.594,324.690 176.230,325.384 177.700 C 325.773 178.525,326.251 179.200,326.446 179.200 C 326.641 179.200,326.800 179.520,326.800 179.912 C 326.800 180.303,327.160 180.883,327.600 181.200 C 328.040 181.517,328.400 182.097,328.400 182.488 C 328.400 182.880,328.580 183.200,328.800 183.200 C 329.020 183.200,329.200 183.560,329.200 184.000 C 329.200 184.440,329.380 184.800,329.600 184.800 C 329.820 184.800,330.000 185.300,330.000 185.912 C 330.000 186.565,330.330 187.261,330.800 187.600 C 331.241 187.918,331.600 188.635,331.600 189.200 C 331.600 189.765,331.959 190.482,332.400 190.800 C 332.920 191.175,333.200 191.835,333.200 192.688 C 333.200 193.410,333.380 194.000,333.600 194.000 C 333.820 194.000,334.000 194.720,334.000 195.600 C 334.000 196.480,334.180 197.200,334.400 197.200 C 334.620 197.200,334.800 197.920,334.800 198.800 C 334.800 199.680,334.980 200.400,335.200 200.400 C 335.420 200.400,335.600 201.300,335.600 202.400 C 335.600 203.500,335.780 204.400,336.000 204.400 C 336.255 204.400,336.400 207.667,336.400 213.400 C 336.400 219.133,336.255 222.400,336.000 222.400 C 335.780 222.400,335.600 223.390,335.600 224.600 C 335.600 225.810,335.420 226.800,335.200 226.800 C 334.980 226.800,334.800 227.520,334.800 228.400 C 334.800 229.280,334.654 230.000,334.475 230.000 C 334.296 230.000,334.106 230.855,334.053 231.900 C 334.000 232.945,333.787 233.860,333.579 233.933 C 333.370 234.007,333.200 234.772,333.200 235.633 C 333.200 236.495,333.020 237.200,332.800 237.200 C 332.580 237.200,332.400 237.560,332.400 238.000 C 332.400 238.440,332.220 238.800,332.000 238.800 C 331.780 238.800,331.600 239.790,331.600 241.000 C 331.600 243.076,331.400 243.421,330.300 243.247 C 330.135 243.221,330.000 243.920,330.000 244.800 C 330.000 245.680,329.820 246.400,329.600 246.400 C 329.380 246.400,329.200 246.760,329.200 247.200 C 329.200 247.640,329.020 248.000,328.800 248.000 C 328.580 248.000,328.400 248.360,328.400 248.800 C 328.400 249.240,328.220 249.600,328.000 249.600 C 327.780 249.600,327.600 250.140,327.600 250.800 C 327.600 251.460,327.420 252.000,327.200 252.000 C 326.980 252.000,326.800 252.360,326.800 252.800 C 326.800 253.240,326.620 253.600,326.400 253.600 C 326.180 253.600,326.000 253.960,326.000 254.400 C 326.000 254.840,325.836 255.200,325.635 255.200 C 325.434 255.200,325.149 255.920,325.000 256.800 C 324.851 257.680,324.566 258.400,324.365 258.400 C 324.164 258.400,324.000 258.630,324.000 258.912 C 324.000 259.193,323.640 259.683,323.200 260.000 C 322.760 260.317,322.400 260.897,322.400 261.288 C 322.400 261.680,322.220 262.000,322.000 262.000 C 321.780 262.000,321.600 262.360,321.600 262.800 C 321.600 263.333,321.333 263.600,320.800 263.600 C 320.141 263.600,320.000 263.867,320.000 265.112 C 320.000 266.165,319.757 266.798,319.200 267.200 C 318.760 267.517,318.400 268.025,318.400 268.328 C 318.400 268.631,317.860 269.383,317.200 270.000 C 316.540 270.617,316.000 271.337,316.000 271.600 C 316.000 271.863,315.460 272.583,314.800 273.200 C 314.140 273.817,313.600 274.462,313.600 274.634 C 313.600 274.806,312.700 275.815,311.600 276.875 C 310.500 277.935,309.600 278.990,309.600 279.218 C 309.600 279.653,309.200 280.197,307.700 281.801 C 307.205 282.330,306.800 282.958,306.800 283.196 C 306.800 283.796,293.074 297.200,292.459 297.200 C 291.947 297.200,290.400 299.156,290.400 299.803 C 290.400 300.131,290.080 300.400,289.688 300.400 C 289.297 300.400,288.717 300.760,288.400 301.200 C 288.083 301.640,287.581 302.000,287.286 302.000 C 286.990 302.000,285.871 302.900,284.800 304.000 C 283.729 305.100,282.610 306.000,282.314 306.000 C 282.019 306.000,281.517 306.360,281.200 306.800 C 280.883 307.240,280.303 307.600,279.912 307.600 C 279.520 307.600,279.200 307.870,279.200 308.200 C 279.200 308.579,278.818 308.800,278.163 308.800 C 277.462 308.800,277.057 309.059,276.916 309.600 C 276.781 310.118,276.370 310.400,275.753 310.400 C 275.067 310.400,274.800 310.624,274.800 311.200 C 274.800 311.700,274.533 312.000,274.088 312.000 C 273.697 312.000,273.117 312.360,272.800 312.800 C 272.483 313.240,271.943 313.600,271.600 313.600 C 271.257 313.600,270.717 313.960,270.400 314.400 C 270.083 314.840,269.543 315.200,269.200 315.200 C 268.857 315.200,268.317 315.560,268.000 316.000 C 267.683 316.440,267.103 316.800,266.712 316.800 C 266.320 316.800,266.000 316.980,266.000 317.200 C 266.000 317.420,265.460 317.600,264.800 317.600 C 263.867 317.600,263.600 317.778,263.600 318.400 C 263.600 319.008,263.333 319.200,262.488 319.200 C 261.835 319.200,261.139 319.530,260.800 320.000 C 260.483 320.440,259.915 320.800,259.539 320.800 C 259.162 320.800,258.740 321.160,258.600 321.600 C 258.428 322.141,257.995 322.400,257.261 322.400 C 256.635 322.400,255.933 322.738,255.600 323.200 C 255.283 323.640,254.600 324.000,254.083 324.000 C 253.566 324.000,252.873 324.270,252.543 324.600 C 252.213 324.930,251.596 325.200,251.171 325.200 C 250.747 325.200,250.400 325.380,250.400 325.600 C 250.400 325.820,250.040 326.000,249.600 326.000 C 249.160 326.000,248.800 326.180,248.800 326.400 C 248.800 326.620,248.440 326.800,248.000 326.800 C 247.560 326.800,247.200 326.980,247.200 327.200 C 247.200 327.420,246.840 327.600,246.400 327.600 C 245.960 327.600,245.600 327.780,245.600 328.000 C 245.600 328.220,245.240 328.400,244.800 328.400 C 244.360 328.400,244.000 328.580,244.000 328.800 C 244.000 329.020,243.533 329.200,242.963 329.200 C 242.262 329.200,241.857 329.459,241.716 330.000 C 241.549 330.638,241.170 330.800,239.842 330.800 C 238.635 330.800,238.018 331.020,237.600 331.600 C 237.209 332.142,236.565 332.400,235.600 332.400 C 234.635 332.400,233.991 332.658,233.600 333.200 C 233.209 333.742,232.565 334.000,231.600 334.000 C 230.635 334.000,229.991 334.258,229.600 334.800 C 229.261 335.270,228.565 335.600,227.912 335.600 C 227.300 335.600,226.800 335.780,226.800 336.000 C 226.800 336.220,226.350 336.400,225.800 336.400 C 225.250 336.400,224.800 336.580,224.800 336.800 C 224.800 337.020,224.440 337.200,224.000 337.200 C 223.560 337.200,223.200 337.380,223.200 337.600 C 223.200 337.820,222.480 338.000,221.600 338.000 C 220.720 338.000,220.000 338.180,220.000 338.400 C 220.000 338.620,219.460 338.800,218.800 338.800 C 218.140 338.800,217.600 338.980,217.600 339.200 C 217.600 339.420,217.060 339.600,216.400 339.600 C 215.740 339.600,215.200 339.780,215.200 340.000 C 215.200 340.220,214.660 340.400,214.000 340.400 C 213.200 340.400,212.800 340.600,212.800 341.000 C 212.800 341.489,213.467 341.600,216.400 341.600 C 218.693 341.600,220.000 341.444,220.000 341.171 C 220.000 340.534,221.053 339.600,221.771 339.600 C 222.117 339.600,222.400 339.780,222.400 340.000 C 222.400 340.231,223.667 340.400,225.400 340.400 C 228.133 340.400,228.400 340.329,228.400 339.600 C 228.400 338.869,228.667 338.800,231.512 338.800 C 234.165 338.800,234.708 338.682,235.200 338.000 C 235.658 337.364,236.235 337.200,238.009 337.200 C 240.144 337.200,242.390 336.535,242.397 335.900 C 242.399 335.735,243.285 335.600,244.367 335.600 C 245.448 335.600,246.393 335.422,246.467 335.203 C 246.540 334.985,247.095 334.766,247.700 334.716 C 248.305 334.666,248.800 334.485,248.800 334.313 C 248.800 334.141,249.340 334.000,250.000 334.000 C 250.660 334.000,251.200 333.820,251.200 333.600 C 251.200 333.380,251.740 333.200,252.400 333.200 C 253.060 333.200,253.600 333.020,253.600 332.800 C 253.600 332.580,254.140 332.400,254.800 332.400 C 255.460 332.400,256.000 332.220,256.000 332.000 C 256.000 331.780,256.439 331.600,256.976 331.600 C 257.513 331.600,258.064 331.420,258.200 331.200 C 258.336 330.980,258.887 330.800,259.424 330.800 C 259.961 330.800,260.400 330.620,260.400 330.400 C 260.400 330.180,261.300 330.000,262.400 330.000 C 264.133 330.000,264.400 329.893,264.400 329.200 C 264.400 328.507,264.667 328.400,266.400 328.400 C 268.133 328.400,268.400 328.293,268.400 327.600 C 268.400 326.912,268.667 326.800,270.312 326.800 C 271.765 326.800,272.362 326.608,272.800 326.000 C 273.170 325.486,273.835 325.200,274.660 325.200 C 275.365 325.200,276.213 324.930,276.543 324.600 C 276.873 324.270,277.606 324.000,278.171 324.000 C 278.737 324.000,279.200 323.820,279.200 323.600 C 279.200 323.380,279.560 323.200,280.000 323.200 C 280.440 323.200,280.800 323.020,280.800 322.800 C 280.800 322.580,281.160 322.400,281.600 322.400 C 282.040 322.400,282.400 322.220,282.400 322.000 C 282.400 321.780,282.760 321.600,283.200 321.600 C 283.640 321.600,284.000 321.420,284.000 321.200 C 284.000 320.980,284.540 320.800,285.200 320.800 C 285.860 320.800,286.400 320.620,286.400 320.400 C 286.400 320.180,286.720 320.000,287.112 320.000 C 287.503 320.000,288.083 319.640,288.400 319.200 C 288.775 318.680,289.435 318.400,290.288 318.400 C 291.333 318.400,291.600 318.237,291.600 317.600 C 291.600 316.933,291.867 316.800,293.200 316.800 C 294.533 316.800,294.800 316.667,294.800 316.000 C 294.800 315.392,295.067 315.200,295.912 315.200 C 296.565 315.200,297.261 314.870,297.600 314.400 C 297.918 313.959,298.635 313.600,299.200 313.600 C 299.765 313.600,300.482 313.241,300.800 312.800 C 301.117 312.360,301.697 312.000,302.088 312.000 C 302.480 312.000,302.800 311.820,302.800 311.600 C 302.800 311.380,303.160 311.200,303.600 311.200 C 304.040 311.200,304.400 311.020,304.400 310.800 C 304.400 310.580,304.720 310.400,305.112 310.400 C 305.503 310.400,306.078 310.047,306.389 309.615 C 306.701 309.183,307.436 308.724,308.024 308.595 C 308.611 308.466,309.469 308.009,309.929 307.580 C 310.390 307.151,311.181 306.800,311.687 306.800 C 312.193 306.800,312.832 306.440,313.107 306.000 C 313.382 305.560,313.922 305.200,314.307 305.200 C 314.692 305.200,315.232 304.840,315.507 304.400 C 315.782 303.960,316.365 303.600,316.803 303.600 C 317.333 303.600,317.600 303.332,317.600 302.800 C 317.600 302.208,317.867 302.000,318.626 302.000 C 319.331 302.000,320.262 301.374,321.600 300.000 C 322.671 298.900,323.818 298.000,324.147 298.000 C 324.477 298.000,324.860 297.640,325.000 297.200 C 325.178 296.640,325.605 296.400,326.427 296.400 C 327.333 296.400,327.600 296.218,327.600 295.600 C 327.600 295.067,327.867 294.800,328.400 294.800 C 328.933 294.800,329.200 294.533,329.200 294.000 C 329.200 293.545,329.467 293.200,329.818 293.200 C 330.158 293.200,330.870 292.795,331.399 292.300 C 333.015 290.789,333.548 290.400,334.002 290.400 C 334.242 290.400,335.681 289.140,337.200 287.600 C 338.719 286.060,340.228 284.800,340.554 284.800 C 340.880 284.800,341.260 284.440,341.400 284.000 C 341.540 283.560,341.822 283.200,342.027 283.200 C 342.232 283.200,342.400 282.840,342.400 282.400 C 342.400 281.949,342.667 281.600,343.011 281.600 C 343.713 281.600,347.200 278.246,347.200 277.571 C 347.200 276.973,349.436 274.906,350.420 274.594 C 350.849 274.457,351.200 274.088,351.200 273.773 C 351.200 273.458,351.560 273.200,352.000 273.200 C 352.533 273.200,352.800 272.933,352.800 272.400 C 352.800 271.960,352.980 271.600,353.200 271.600 C 353.420 271.600,353.600 271.312,353.600 270.960 C 353.600 270.609,354.140 269.817,354.800 269.200 C 355.460 268.583,356.000 267.880,356.000 267.636 C 356.000 267.392,356.540 266.628,357.200 265.937 C 357.860 265.246,358.400 264.441,358.400 264.148 C 358.400 263.855,359.030 262.966,359.800 262.173 C 360.570 261.380,361.200 260.517,361.200 260.254 C 361.200 259.991,361.560 259.517,362.000 259.200 C 362.440 258.883,362.800 258.433,362.800 258.200 C 362.800 257.967,363.160 257.517,363.600 257.200 C 364.040 256.883,364.400 256.303,364.400 255.912 C 364.400 255.520,364.580 255.200,364.800 255.200 C 365.020 255.200,365.200 254.840,365.200 254.400 C 365.200 253.960,365.380 253.600,365.600 253.600 C 365.820 253.600,366.000 253.240,366.000 252.800 C 366.000 252.360,366.180 252.000,366.400 252.000 C 366.620 252.000,366.800 251.680,366.800 251.288 C 366.800 250.897,367.160 250.317,367.600 250.000 C 368.040 249.683,368.400 249.103,368.400 248.712 C 368.400 248.320,368.580 248.000,368.800 248.000 C 369.020 248.000,369.200 247.640,369.200 247.200 C 369.200 246.760,369.380 246.400,369.600 246.400 C 369.820 246.400,370.000 246.040,370.000 245.600 C 370.000 245.160,370.180 244.800,370.400 244.800 C 370.620 244.800,370.800 244.440,370.800 244.000 C 370.800 243.560,370.980 243.200,371.200 243.200 C 371.420 243.200,371.600 242.876,371.600 242.480 C 371.600 241.586,372.494 239.607,372.900 239.603 C 373.065 239.601,373.200 239.088,373.200 238.462 C 373.200 237.836,373.536 237.020,373.946 236.649 C 374.403 236.236,374.787 235.166,374.939 233.889 C 375.074 232.743,375.369 231.744,375.593 231.669 C 375.817 231.594,376.000 230.648,376.000 229.567 C 376.000 228.485,376.180 227.600,376.400 227.600 C 376.620 227.600,376.800 227.060,376.800 226.400 C 376.800 225.740,376.980 225.200,377.200 225.200 C 377.420 225.200,377.600 224.570,377.600 223.800 C 377.600 223.030,377.780 222.400,378.000 222.400 C 378.220 222.400,378.400 221.680,378.400 220.800 C 378.400 219.920,378.580 219.200,378.800 219.200 C 379.020 219.200,379.200 218.300,379.200 217.200 C 379.200 216.100,379.380 215.200,379.600 215.200 C 379.822 215.200,380.000 214.133,380.000 212.800 C 380.000 211.467,380.178 210.400,380.400 210.400 C 380.631 210.400,380.800 209.133,380.800 207.400 C 380.800 205.667,380.969 204.400,381.200 204.400 C 381.457 204.400,381.600 200.467,381.600 193.400 C 381.600 186.333,381.457 182.400,381.200 182.400 C 380.967 182.400,380.800 181.067,380.800 179.200 C 380.800 177.333,380.633 176.000,380.400 176.000 C 380.180 176.000,380.000 175.370,380.000 174.600 C 380.000 173.467,379.848 173.200,379.200 173.200 C 378.497 173.200,378.400 173.467,378.400 175.400 C 378.400 176.610,378.580 177.600,378.800 177.600 C 379.020 177.600,379.200 177.780,379.200 178.000 C 379.200 178.220,378.840 178.400,378.400 178.400 C 377.778 178.400,377.600 178.667,377.600 179.600 C 377.600 180.260,377.420 180.800,377.200 180.800 C 376.980 180.800,376.800 181.340,376.800 182.000 C 376.800 182.660,376.620 183.200,376.400 183.200 C 376.180 183.200,376.000 183.560,376.000 184.000 C 376.000 184.440,375.800 184.800,375.555 184.800 C 375.287 184.800,375.180 185.280,375.285 186.000 C 375.382 186.660,375.313 187.200,375.131 187.200 C 374.949 187.200,374.800 187.560,374.800 188.000 C 374.800 188.440,374.620 188.800,374.400 188.800 C 374.180 188.800,374.000 189.160,374.000 189.600 C 374.000 190.040,373.864 190.400,373.698 190.400 C 373.531 190.400,373.140 190.985,372.828 191.700 C 372.516 192.415,371.932 193.291,371.530 193.647 C 371.129 194.003,370.800 194.548,370.800 194.859 C 370.800 195.169,370.440 195.683,370.000 196.000 C 369.560 196.317,369.200 196.897,369.200 197.288 C 369.200 197.680,369.020 198.000,368.800 198.000 C 368.569 198.000,368.400 196.741,368.400 195.024 C 368.400 193.387,368.220 191.936,368.000 191.800 C 367.780 191.664,367.600 190.753,367.600 189.776 C 367.600 188.799,367.420 188.000,367.200 188.000 C 366.980 188.000,366.800 187.460,366.800 186.800 C 366.800 186.140,366.620 185.600,366.400 185.600 C 366.180 185.600,366.000 184.880,366.000 184.000 C 366.000 183.120,365.820 182.400,365.600 182.400 C 365.380 182.400,365.200 181.860,365.200 181.200 C 365.200 180.540,365.020 180.000,364.800 180.000 C 364.580 180.000,364.400 179.269,364.400 178.376 C 364.400 177.396,364.242 176.851,364.000 177.000 C 363.780 177.136,363.600 176.967,363.600 176.624 C 363.600 176.281,363.420 176.000,363.200 176.000 C 362.980 176.000,362.800 175.590,362.800 175.088 C 362.800 174.587,362.440 173.917,362.000 173.600 C 361.560 173.283,361.200 172.703,361.200 172.312 C 361.200 171.920,361.020 171.600,360.800 171.600 C 360.580 171.600,360.400 171.280,360.400 170.888 C 360.400 170.497,360.040 169.917,359.600 169.600 C 359.160 169.283,358.800 168.725,358.800 168.361 C 358.800 167.996,358.530 167.474,358.200 167.200 C 357.870 166.926,357.600 166.440,357.600 166.120 C 357.600 165.799,356.880 164.846,356.000 164.000 C 355.120 163.154,354.392 162.224,354.382 161.931 C 354.371 161.639,353.643 160.770,352.762 160.000 C 351.882 159.230,350.184 157.655,348.990 156.500 C 347.795 155.345,346.543 154.400,346.209 154.400 C 345.867 154.400,345.600 154.050,345.600 153.600 C 345.600 153.138,345.333 152.800,344.969 152.800 C 344.621 152.800,343.646 152.080,342.800 151.200 C 341.954 150.320,341.069 149.600,340.831 149.600 C 340.594 149.600,340.400 149.420,340.400 149.200 C 340.400 148.980,340.080 148.800,339.688 148.800 C 339.297 148.800,338.717 148.440,338.400 148.000 C 338.083 147.560,337.543 147.200,337.200 147.200 C 336.857 147.200,336.317 146.840,336.000 146.400 C 335.683 145.960,335.103 145.600,334.712 145.600 C 334.320 145.600,334.000 145.420,334.000 145.200 C 334.000 144.980,333.640 144.800,333.200 144.800 C 332.760 144.800,332.400 144.620,332.400 144.400 C 332.400 144.180,332.080 144.000,331.688 144.000 C 331.297 144.000,330.717 143.640,330.400 143.200 C 330.072 142.745,329.365 142.400,328.761 142.400 C 328.176 142.400,327.474 142.130,327.200 141.800 C 326.926 141.470,326.276 141.200,325.754 141.200 C 325.233 141.200,324.582 140.840,324.307 140.400 C 324.021 139.941,323.374 139.600,322.792 139.600 C 322.234 139.600,321.517 139.240,321.200 138.800 C 320.762 138.192,320.165 138.000,318.712 138.000 C 317.660 138.000,316.800 137.820,316.800 137.600 C 316.800 137.380,316.440 137.200,316.000 137.200 C 315.560 137.200,315.200 137.020,315.200 136.800 C 315.200 136.580,314.660 136.400,314.000 136.400 C 313.340 136.400,312.800 136.220,312.800 136.000 C 312.800 135.780,312.260 135.600,311.600 135.600 C 310.940 135.600,310.400 135.420,310.400 135.200 C 310.400 134.980,309.770 134.800,309.000 134.800 C 308.230 134.800,307.600 134.664,307.600 134.497 C 307.600 134.131,304.733 133.200,303.606 133.200 C 303.163 133.200,302.800 133.020,302.800 132.800 C 302.800 132.568,301.496 132.400,299.688 132.400 C 297.035 132.400,296.492 132.282,296.000 131.600 C 295.495 130.899,294.965 130.800,291.712 130.800 C 288.267 130.800,288.000 130.743,288.000 130.000 C 288.000 129.231,287.733 129.200,281.088 129.200 C 274.635 129.200,274.138 129.147,273.600 128.400 C 273.055 127.644,272.565 127.600,264.600 127.600 C 256.635 127.600,256.145 127.644,255.600 128.400 " stroke="none" fill="#db234c" fill-rule="evenodd"></path><path id="path1" d="M179.200 62.400 C 179.200 62.620,178.581 62.800,177.824 62.800 C 177.067 62.800,176.336 62.980,176.200 63.200 C 176.064 63.420,174.793 63.600,173.376 63.600 C 171.925 63.600,170.800 63.775,170.800 64.000 C 170.800 64.220,170.080 64.400,169.200 64.400 C 168.320 64.400,167.600 64.580,167.600 64.800 C 167.600 65.020,166.880 65.200,166.000 65.200 C 165.120 65.200,164.400 65.380,164.400 65.600 C 164.400 65.820,163.680 66.000,162.800 66.000 C 161.920 66.000,161.200 66.180,161.200 66.400 C 161.200 66.620,160.570 66.800,159.800 66.800 C 159.030 66.800,158.400 66.980,158.400 67.200 C 158.400 67.420,157.680 67.600,156.800 67.600 C 155.920 67.600,155.200 67.780,155.200 68.000 C 155.200 68.220,154.660 68.400,154.000 68.400 C 153.340 68.400,152.800 68.580,152.800 68.800 C 152.800 69.020,152.080 69.200,151.200 69.200 C 150.320 69.200,149.600 69.380,149.600 69.600 C 149.600 69.820,149.060 70.000,148.400 70.000 C 147.740 70.000,147.200 70.180,147.200 70.400 C 147.200 70.620,146.340 70.800,145.288 70.800 C 143.835 70.800,143.238 70.992,142.800 71.600 C 142.386 72.174,141.765 72.400,140.600 72.400 C 139.435 72.400,138.814 72.626,138.400 73.200 C 138.021 73.726,137.365 74.000,136.483 74.000 C 135.746 74.000,134.873 74.270,134.543 74.600 C 134.213 74.930,133.336 75.200,132.595 75.200 C 131.854 75.200,131.136 75.380,131.000 75.600 C 130.864 75.820,130.403 76.000,129.976 76.000 C 129.549 76.000,129.200 76.180,129.200 76.400 C 129.200 76.620,128.660 76.800,128.000 76.800 C 127.340 76.800,126.799 76.935,126.797 77.100 C 126.793 77.506,124.814 78.400,123.920 78.400 C 123.524 78.400,123.200 78.580,123.200 78.800 C 123.200 79.020,122.840 79.200,122.400 79.200 C 121.960 79.200,121.600 79.380,121.600 79.600 C 121.600 79.820,121.240 80.000,120.800 80.000 C 120.360 80.000,120.000 80.180,120.000 80.400 C 120.000 80.620,119.460 80.800,118.800 80.800 C 118.140 80.800,117.600 80.980,117.600 81.200 C 117.600 81.420,117.240 81.600,116.800 81.600 C 116.360 81.600,116.000 81.780,116.000 82.000 C 116.000 82.220,115.500 82.400,114.888 82.400 C 114.235 82.400,113.539 82.730,113.200 83.200 C 112.861 83.670,112.165 84.000,111.512 84.000 C 110.900 84.000,110.400 84.180,110.400 84.400 C 110.400 84.620,110.040 84.800,109.600 84.800 C 109.160 84.800,108.800 84.980,108.800 85.200 C 108.800 85.420,108.570 85.600,108.288 85.600 C 108.007 85.600,107.517 85.960,107.200 86.400 C 106.882 86.841,106.165 87.200,105.600 87.200 C 105.035 87.200,104.318 87.559,104.000 88.000 C 103.683 88.440,103.103 88.800,102.712 88.800 C 102.320 88.800,102.000 88.980,102.000 89.200 C 102.000 89.420,101.640 89.600,101.200 89.600 C 100.760 89.600,100.400 89.780,100.400 90.000 C 100.400 90.220,100.040 90.400,99.600 90.400 C 99.160 90.400,98.800 90.580,98.800 90.800 C 98.800 91.020,98.553 91.200,98.251 91.200 C 97.389 91.200,94.160 92.726,93.604 93.395 C 93.328 93.728,92.894 94.000,92.639 94.000 C 92.385 94.000,91.917 94.360,91.600 94.800 C 91.261 95.270,90.565 95.600,89.912 95.600 C 89.067 95.600,88.800 95.792,88.800 96.400 C 88.800 96.995,88.533 97.200,87.760 97.200 C 87.121 97.200,86.289 97.662,85.600 98.400 C 84.983 99.060,84.231 99.600,83.928 99.600 C 83.625 99.600,83.117 99.960,82.800 100.400 C 82.483 100.840,81.943 101.200,81.600 101.200 C 81.257 101.200,80.717 101.560,80.400 102.000 C 80.083 102.440,79.543 102.800,79.200 102.800 C 78.857 102.800,78.317 103.160,78.000 103.600 C 77.683 104.040,77.143 104.400,76.800 104.400 C 76.457 104.400,75.917 104.760,75.600 105.200 C 75.283 105.640,74.877 106.000,74.698 106.000 C 74.520 106.000,73.743 106.630,72.973 107.400 C 72.203 108.170,71.295 108.800,70.955 108.800 C 70.615 108.800,69.646 109.520,68.800 110.400 C 67.954 111.280,67.057 112.000,66.805 112.000 C 66.554 112.000,65.471 112.900,64.400 114.000 C 63.329 115.100,62.170 116.000,61.826 116.000 C 61.467 116.000,61.200 116.341,61.200 116.800 C 61.200 117.300,60.933 117.600,60.488 117.600 C 60.097 117.600,59.512 117.988,59.188 118.462 C 58.531 119.425,53.704 124.246,51.239 126.400 C 50.358 127.170,49.629 128.037,49.618 128.326 C 49.608 128.615,48.700 129.729,47.600 130.800 C 46.500 131.871,45.600 132.954,45.600 133.205 C 45.600 133.457,44.880 134.354,44.000 135.200 C 43.120 136.046,42.400 136.978,42.400 137.273 C 42.400 137.567,41.950 138.293,41.400 138.887 C 40.850 139.480,40.400 140.203,40.400 140.494 C 40.400 140.785,40.040 141.283,39.600 141.600 C 39.160 141.917,38.800 142.367,38.800 142.600 C 38.800 142.833,38.440 143.283,38.000 143.600 C 37.560 143.917,37.200 144.497,37.200 144.888 C 37.200 145.280,37.020 145.600,36.800 145.600 C 36.580 145.600,36.400 145.920,36.400 146.312 C 36.400 146.703,36.040 147.283,35.600 147.600 C 35.160 147.917,34.800 148.425,34.800 148.728 C 34.800 149.031,34.260 149.783,33.600 150.400 C 32.917 151.038,32.400 151.931,32.400 152.472 C 32.400 152.995,32.040 153.683,31.600 154.000 C 31.160 154.317,30.800 154.897,30.800 155.288 C 30.800 155.680,30.620 156.000,30.400 156.000 C 30.180 156.000,30.000 156.360,30.000 156.800 C 30.000 157.240,29.820 157.600,29.600 157.600 C 29.380 157.600,29.200 158.050,29.200 158.600 C 29.200 159.150,29.020 159.600,28.800 159.600 C 28.580 159.600,28.400 159.960,28.400 160.400 C 28.400 160.840,28.253 161.200,28.072 161.200 C 27.892 161.200,27.500 162.100,27.200 163.200 C 26.900 164.300,26.508 165.200,26.328 165.200 C 26.147 165.200,26.000 165.549,26.000 165.976 C 26.000 166.403,25.841 166.851,25.646 166.971 C 25.452 167.092,25.171 168.002,25.022 168.995 C 24.873 169.988,24.582 170.800,24.375 170.800 C 24.169 170.800,24.000 171.520,24.000 172.400 C 24.000 173.280,23.865 174.001,23.700 174.003 C 23.152 174.009,22.400 176.137,22.400 177.680 C 22.400 178.516,22.220 179.200,22.000 179.200 C 21.780 179.200,21.600 179.740,21.600 180.400 C 21.600 181.060,21.420 181.600,21.200 181.600 C 20.980 181.600,20.800 182.320,20.800 183.200 C 20.800 184.080,20.620 184.800,20.400 184.800 C 20.180 184.800,20.000 185.700,20.000 186.800 C 20.000 187.900,19.820 188.800,19.600 188.800 C 19.359 188.800,19.200 190.467,19.200 193.000 C 19.200 195.533,19.041 197.200,18.800 197.200 C 18.542 197.200,18.400 201.667,18.400 209.800 C 18.400 217.933,18.542 222.400,18.800 222.400 C 19.035 222.400,19.200 223.800,19.200 225.800 C 19.200 228.933,19.263 229.200,20.000 229.200 C 20.667 229.200,20.800 228.933,20.800 227.600 C 20.800 226.720,20.980 226.000,21.200 226.000 C 21.420 226.000,21.600 225.561,21.600 225.024 C 21.600 224.487,21.780 223.936,22.000 223.800 C 22.220 223.664,22.400 222.933,22.400 222.176 C 22.400 221.419,22.580 220.800,22.800 220.800 C 23.020 220.800,23.200 220.440,23.200 220.000 C 23.200 219.560,23.380 219.200,23.600 219.200 C 23.820 219.200,24.000 218.771,24.000 218.246 C 24.000 217.721,24.269 216.776,24.598 216.146 C 24.926 215.516,25.196 214.685,25.198 214.300 C 25.199 213.915,25.380 213.600,25.600 213.600 C 25.820 213.600,26.000 213.240,26.000 212.800 C 26.000 212.360,26.180 212.000,26.400 212.000 C 26.620 212.000,26.800 211.680,26.800 211.288 C 26.800 210.897,27.160 210.317,27.600 210.000 C 28.040 209.683,28.400 209.195,28.400 208.915 C 28.400 208.636,28.760 208.182,29.200 207.907 C 29.640 207.632,30.000 207.091,30.000 206.704 C 30.000 206.317,30.180 206.000,30.400 206.000 C 30.626 206.000,30.800 207.133,30.800 208.600 C 30.800 210.067,30.974 211.200,31.200 211.200 C 31.420 211.200,31.600 211.920,31.600 212.800 C 31.600 213.680,31.780 214.400,32.000 214.400 C 32.220 214.400,32.400 215.300,32.400 216.400 C 32.400 217.500,32.580 218.400,32.800 218.400 C 33.020 218.400,33.200 218.940,33.200 219.600 C 33.200 220.260,33.380 220.800,33.600 220.800 C 33.820 220.800,34.000 221.340,34.000 222.000 C 34.000 222.660,34.180 223.200,34.400 223.200 C 34.620 223.200,34.800 223.560,34.800 224.000 C 34.800 224.440,34.980 224.800,35.200 224.800 C 35.420 224.800,35.600 225.250,35.600 225.800 C 35.600 226.350,35.780 226.800,36.000 226.800 C 36.220 226.800,36.400 227.120,36.400 227.512 C 36.400 227.903,36.760 228.483,37.200 228.800 C 37.641 229.118,38.000 229.835,38.000 230.400 C 38.000 230.965,38.359 231.682,38.800 232.000 C 39.240 232.317,39.600 232.857,39.600 233.200 C 39.600 233.543,39.960 234.083,40.400 234.400 C 40.840 234.717,41.200 235.272,41.200 235.632 C 41.200 236.238,42.941 239.141,43.580 239.600 C 43.733 239.710,43.975 240.115,44.117 240.500 C 44.259 240.885,44.651 241.200,44.987 241.200 C 45.324 241.200,45.600 241.382,45.600 241.605 C 45.600 242.255,53.129 249.600,53.795 249.600 C 54.133 249.600,54.400 249.953,54.400 250.400 C 54.400 250.900,54.667 251.200,55.112 251.200 C 55.503 251.200,56.083 251.560,56.400 252.000 C 56.717 252.440,57.254 252.800,57.592 252.800 C 57.931 252.800,58.432 253.160,58.707 253.600 C 58.982 254.040,59.403 254.400,59.643 254.400 C 59.883 254.400,60.583 254.940,61.200 255.600 C 61.817 256.260,62.587 256.800,62.912 256.800 C 63.236 256.800,63.725 257.069,63.998 257.397 C 64.270 257.726,65.192 258.182,66.047 258.413 C 66.901 258.643,67.600 259.004,67.600 259.215 C 67.600 259.427,67.920 259.600,68.312 259.600 C 68.703 259.600,69.283 259.960,69.600 260.400 C 69.918 260.841,70.635 261.200,71.200 261.200 C 71.765 261.200,72.482 261.559,72.800 262.000 C 73.160 262.500,73.835 262.800,74.600 262.800 C 75.365 262.800,76.040 263.100,76.400 263.600 C 76.739 264.070,77.435 264.400,78.088 264.400 C 78.700 264.400,79.200 264.580,79.200 264.800 C 79.200 265.020,79.740 265.200,80.400 265.200 C 81.060 265.200,81.600 265.380,81.600 265.600 C 81.600 265.820,81.960 266.000,82.400 266.000 C 82.840 266.000,83.200 266.180,83.200 266.400 C 83.200 266.620,83.740 266.800,84.400 266.800 C 85.060 266.800,85.600 266.980,85.600 267.200 C 85.600 267.420,86.140 267.600,86.800 267.600 C 87.460 267.600,88.000 267.780,88.000 268.000 C 88.000 268.220,88.540 268.400,89.200 268.400 C 89.860 268.400,90.400 268.580,90.400 268.800 C 90.400 269.020,90.839 269.200,91.376 269.200 C 91.913 269.200,92.464 269.380,92.600 269.600 C 92.736 269.820,93.467 270.000,94.224 270.000 C 94.981 270.000,95.600 270.180,95.600 270.400 C 95.600 270.620,96.140 270.800,96.800 270.800 C 97.460 270.800,98.000 270.980,98.000 271.200 C 98.000 271.422,99.067 271.600,100.400 271.600 C 101.733 271.600,102.800 271.778,102.800 272.000 C 102.800 272.220,103.340 272.400,104.000 272.400 C 104.660 272.400,105.200 272.580,105.200 272.800 C 105.200 273.026,106.342 273.200,107.826 273.200 C 109.271 273.200,110.812 273.392,111.252 273.628 C 111.846 273.946,112.215 273.920,112.691 273.528 C 113.195 273.112,113.366 273.106,113.498 273.500 C 113.594 273.785,114.332 274.000,115.210 274.000 C 116.058 274.000,116.864 274.180,117.000 274.400 C 117.545 275.282,155.018 274.907,156.894 274.000 C 158.186 273.376,159.369 273.200,162.275 273.200 C 164.492 273.200,166.000 273.038,166.000 272.800 C 166.000 272.580,166.360 272.400,166.800 272.400 C 167.240 272.400,167.600 272.220,167.600 272.000 C 167.600 271.773,168.771 271.600,170.312 271.600 C 172.565 271.600,173.121 271.465,173.600 270.800 C 174.071 270.146,174.635 270.000,176.688 270.000 C 178.096 270.000,179.200 269.824,179.200 269.600 C 179.200 269.380,179.560 269.200,180.000 269.200 C 180.440 269.200,180.800 269.020,180.800 268.800 C 180.800 268.580,181.520 268.400,182.400 268.400 C 183.280 268.400,184.000 268.220,184.000 268.000 C 184.000 267.780,184.540 267.600,185.200 267.600 C 185.860 267.600,186.400 267.420,186.400 267.200 C 186.400 266.980,186.940 266.800,187.600 266.800 C 188.260 266.800,188.800 266.620,188.800 266.400 C 188.800 266.180,189.340 266.000,190.000 266.000 C 190.660 266.000,191.200 265.820,191.200 265.600 C 191.200 265.380,191.650 265.200,192.200 265.200 C 192.750 265.200,193.200 265.020,193.200 264.800 C 193.200 264.580,193.740 264.400,194.400 264.400 C 195.060 264.400,195.600 264.220,195.600 264.000 C 195.600 263.780,195.960 263.600,196.400 263.600 C 196.840 263.600,197.200 263.420,197.200 263.200 C 197.200 262.980,197.700 262.800,198.312 262.800 C 198.965 262.800,199.661 262.470,200.000 262.000 C 200.391 261.458,201.035 261.200,202.000 261.200 C 202.965 261.200,203.609 260.942,204.000 260.400 C 204.318 259.959,205.035 259.600,205.600 259.600 C 206.163 259.600,206.866 259.263,207.163 258.851 C 207.494 258.392,208.003 258.180,208.475 258.304 C 209.023 258.447,209.312 258.258,209.470 257.653 C 209.692 256.807,211.200 256.412,211.200 257.200 C 211.200 257.420,211.020 257.600,210.800 257.600 C 210.580 257.600,210.400 257.887,210.400 258.238 C 210.400 258.589,210.022 259.408,209.559 260.057 C 209.097 260.706,208.623 261.949,208.507 262.819 C 208.390 263.688,208.138 264.400,207.947 264.400 C 207.756 264.400,207.600 264.940,207.600 265.600 C 207.600 266.533,207.422 266.800,206.800 266.800 C 206.360 266.800,206.000 266.980,206.000 267.200 C 206.000 267.420,205.640 267.600,205.200 267.600 C 204.760 267.600,204.400 267.780,204.400 268.000 C 204.400 268.220,204.040 268.400,203.600 268.400 C 203.160 268.400,202.800 268.580,202.800 268.800 C 202.800 269.020,202.440 269.200,202.000 269.200 C 201.560 269.200,201.200 269.380,201.200 269.600 C 201.200 269.820,200.660 270.000,200.000 270.000 C 199.340 270.000,198.800 270.180,198.800 270.400 C 198.800 270.620,198.440 270.800,198.000 270.800 C 197.560 270.800,197.200 270.980,197.200 271.200 C 197.200 271.420,196.840 271.600,196.400 271.600 C 195.960 271.600,195.600 271.780,195.600 272.000 C 195.600 272.220,194.916 272.400,194.080 272.400 C 192.537 272.400,190.409 273.152,190.403 273.700 C 190.401 273.865,189.937 274.000,189.371 274.000 C 188.806 274.000,188.073 274.270,187.743 274.600 C 187.359 274.984,186.371 275.200,184.995 275.200 C 183.814 275.200,182.736 275.380,182.600 275.600 C 182.464 275.820,182.003 276.000,181.576 276.000 C 181.149 276.000,180.800 276.180,180.800 276.400 C 180.800 276.620,180.001 276.800,179.024 276.800 C 178.047 276.800,177.136 276.980,177.000 277.200 C 176.864 277.420,176.313 277.600,175.776 277.600 C 175.239 277.600,174.800 277.780,174.800 278.000 C 174.800 278.220,173.900 278.400,172.800 278.400 C 171.700 278.400,170.800 278.580,170.800 278.800 C 170.800 279.020,170.080 279.200,169.200 279.200 C 168.320 279.200,167.600 279.380,167.600 279.600 C 167.600 279.822,166.533 280.000,165.200 280.000 C 163.867 280.000,162.800 280.178,162.800 280.400 C 162.800 280.626,161.667 280.800,160.200 280.800 C 158.733 280.800,157.600 280.974,157.600 281.200 C 157.600 281.433,156.267 281.600,154.400 281.600 C 152.533 281.600,151.200 281.767,151.200 282.000 C 151.200 282.247,149.133 282.400,145.800 282.400 C 142.467 282.400,140.400 282.553,140.400 282.800 C 140.400 283.053,137.600 283.200,132.800 283.200 C 128.000 283.200,125.200 283.053,125.200 282.800 C 125.200 282.553,123.133 282.400,119.800 282.400 C 116.467 282.400,114.400 282.247,114.400 282.000 C 114.400 281.771,113.200 281.600,111.600 281.600 C 110.000 281.600,108.800 281.429,108.800 281.200 C 108.800 280.980,107.810 280.800,106.600 280.800 C 105.390 280.800,104.400 280.620,104.400 280.400 C 104.400 280.178,103.333 280.000,102.000 280.000 C 100.667 280.000,99.600 279.822,99.600 279.600 C 99.600 279.380,98.880 279.200,98.000 279.200 C 97.120 279.200,96.400 279.020,96.400 278.800 C 96.400 278.580,95.500 278.400,94.400 278.400 C 93.300 278.400,92.400 278.220,92.400 278.000 C 92.400 277.780,91.961 277.600,91.424 277.600 C 90.887 277.600,90.336 277.420,90.200 277.200 C 90.064 276.980,89.429 276.800,88.789 276.800 C 88.148 276.800,86.983 276.440,86.200 276.000 C 85.417 275.560,84.074 275.200,83.216 275.200 C 82.359 275.200,81.387 274.930,81.057 274.600 C 80.727 274.270,79.854 274.000,79.117 274.000 C 78.235 274.000,77.579 273.726,77.200 273.200 C 76.825 272.680,76.165 272.400,75.312 272.400 C 74.590 272.400,74.000 272.220,74.000 272.000 C 74.000 271.780,73.640 271.600,73.200 271.600 C 72.760 271.600,72.400 271.420,72.400 271.200 C 72.400 270.980,71.860 270.800,71.200 270.800 C 70.540 270.800,70.000 270.620,70.000 270.400 C 70.000 270.180,69.640 270.000,69.200 270.000 C 68.760 270.000,68.400 269.820,68.400 269.600 C 68.400 269.380,68.040 269.200,67.600 269.200 C 67.160 269.200,66.800 269.020,66.800 268.800 C 66.800 268.580,66.480 268.400,66.088 268.400 C 65.697 268.400,65.117 268.040,64.800 267.600 C 64.482 267.159,63.765 266.800,63.200 266.800 C 62.635 266.800,61.918 266.441,61.600 266.000 C 61.283 265.560,60.743 265.200,60.400 265.200 C 60.057 265.200,59.517 264.840,59.200 264.400 C 58.883 263.960,58.433 263.600,58.200 263.600 C 57.967 263.600,57.517 263.240,57.200 262.800 C 56.883 262.360,56.303 262.000,55.912 262.000 C 55.520 262.000,55.200 261.850,55.200 261.668 C 55.200 261.485,54.705 261.081,54.100 260.770 C 53.495 260.460,52.709 259.889,52.353 259.503 C 51.997 259.116,51.417 258.800,51.064 258.800 C 50.710 258.800,49.611 257.990,48.621 257.000 C 47.631 256.010,46.632 255.200,46.400 255.200 C 45.746 255.200,42.400 251.696,42.400 251.011 C 42.400 250.675,42.212 250.400,41.982 250.400 C 41.422 250.400,39.600 248.554,39.600 247.987 C 39.600 247.740,38.880 246.846,38.000 246.000 C 37.120 245.154,36.400 244.218,36.400 243.920 C 36.400 243.621,36.040 243.117,35.600 242.800 C 35.160 242.483,34.800 242.033,34.800 241.800 C 34.800 241.567,34.440 241.117,34.000 240.800 C 33.560 240.483,33.200 239.903,33.200 239.512 C 33.200 239.120,33.020 238.800,32.800 238.800 C 32.580 238.800,32.400 238.440,32.400 238.000 C 32.400 237.560,32.220 237.200,32.000 237.200 C 31.780 237.200,31.600 236.840,31.600 236.400 C 31.600 235.960,31.420 235.600,31.200 235.600 C 30.980 235.600,30.800 235.240,30.800 234.800 C 30.800 234.360,30.620 234.000,30.400 234.000 C 30.180 234.000,30.000 233.640,30.000 233.200 C 30.000 232.760,29.820 232.400,29.600 232.400 C 29.380 232.400,29.200 231.847,29.200 231.171 C 29.200 230.216,29.044 229.971,28.500 230.075 C 27.697 230.227,27.194 234.800,27.980 234.800 C 28.227 234.800,28.400 235.791,28.400 237.200 C 28.400 238.533,28.578 239.600,28.800 239.600 C 29.020 239.600,29.200 240.230,29.200 241.000 C 29.200 241.770,29.380 242.400,29.600 242.400 C 29.820 242.400,30.000 242.940,30.000 243.600 C 30.000 244.260,30.180 244.800,30.400 244.800 C 30.620 244.800,30.800 245.520,30.800 246.400 C 30.800 247.280,30.980 248.000,31.200 248.000 C 31.420 248.000,31.600 248.360,31.600 248.800 C 31.600 249.240,31.780 249.600,32.000 249.600 C 32.220 249.600,32.400 249.960,32.400 250.400 C 32.400 250.840,32.580 251.200,32.800 251.200 C 33.020 251.200,33.200 251.560,33.200 252.000 C 33.200 252.440,33.380 252.800,33.600 252.800 C 33.820 252.800,34.000 253.160,34.000 253.600 C 34.000 254.040,34.180 254.400,34.400 254.400 C 34.620 254.400,34.800 254.636,34.800 254.925 C 34.800 255.213,35.160 255.836,35.600 256.308 C 36.040 256.780,36.400 257.353,36.400 257.580 C 36.400 257.807,36.760 258.218,37.200 258.493 C 37.640 258.768,38.000 259.269,38.000 259.608 C 38.000 259.946,38.360 260.483,38.800 260.800 C 39.240 261.117,39.600 261.613,39.600 261.902 C 39.600 262.190,40.230 263.057,41.000 263.827 C 41.770 264.597,42.400 265.452,42.400 265.728 C 42.400 266.466,45.858 270.000,46.581 270.000 C 46.933 270.000,47.200 270.345,47.200 270.800 C 47.200 271.251,47.467 271.600,47.811 271.600 C 48.146 271.600,49.231 272.410,50.221 273.400 C 51.211 274.390,52.337 275.200,52.722 275.200 C 53.108 275.200,53.683 275.560,54.000 276.000 C 54.317 276.440,54.857 276.800,55.200 276.800 C 55.543 276.800,56.083 277.160,56.400 277.600 C 56.717 278.040,57.285 278.400,57.661 278.400 C 58.038 278.400,58.460 278.760,58.600 279.200 C 58.740 279.640,59.162 280.000,59.539 280.000 C 59.915 280.000,60.483 280.360,60.800 280.800 C 61.117 281.240,61.657 281.600,62.000 281.600 C 62.343 281.600,62.883 281.960,63.200 282.400 C 63.517 282.840,64.057 283.200,64.400 283.200 C 64.743 283.200,65.283 283.560,65.600 284.000 C 65.991 284.542,66.635 284.800,67.600 284.800 C 68.565 284.800,69.209 285.058,69.600 285.600 C 69.939 286.070,70.635 286.400,71.288 286.400 C 71.900 286.400,72.400 286.580,72.400 286.800 C 72.400 287.020,72.760 287.200,73.200 287.200 C 73.640 287.200,74.001 287.335,74.003 287.500 C 74.007 287.906,75.986 288.800,76.880 288.800 C 77.276 288.800,77.600 288.980,77.600 289.200 C 77.600 289.420,78.140 289.600,78.800 289.600 C 79.460 289.600,80.000 289.740,80.000 289.911 C 80.000 290.288,84.287 291.600,85.520 291.600 C 86.004 291.600,86.400 291.780,86.400 292.000 C 86.400 292.220,86.940 292.400,87.600 292.400 C 88.260 292.400,88.800 292.580,88.800 292.800 C 88.800 293.020,89.790 293.200,91.000 293.200 C 92.210 293.200,93.200 293.380,93.200 293.600 C 93.200 293.820,93.560 294.000,94.000 294.000 C 94.440 294.000,94.800 294.180,94.800 294.400 C 94.800 294.622,95.867 294.800,97.200 294.800 C 98.533 294.800,99.600 294.978,99.600 295.200 C 99.600 295.420,99.960 295.600,100.400 295.600 C 100.840 295.600,101.200 295.780,101.200 296.000 C 101.200 296.239,102.733 296.400,105.000 296.400 C 107.267 296.400,108.800 296.561,108.800 296.800 C 108.800 297.040,110.400 297.200,112.800 297.200 C 115.200 297.200,116.800 297.360,116.800 297.600 C 116.800 297.858,121.200 298.000,129.200 298.000 C 137.200 298.000,141.600 297.858,141.600 297.600 C 141.600 297.363,143.067 297.200,145.200 297.200 C 147.333 297.200,148.800 297.037,148.800 296.800 C 148.800 296.558,150.501 296.400,153.104 296.400 C 156.974 296.400,157.458 296.319,157.907 295.600 C 158.332 294.919,158.840 294.800,161.315 294.800 C 163.765 294.800,164.314 294.674,164.800 294.000 C 165.262 293.359,165.835 293.200,167.688 293.200 C 168.963 293.200,170.000 293.021,170.000 292.800 C 170.000 292.580,170.540 292.400,171.200 292.400 C 171.860 292.400,172.400 292.245,172.400 292.056 C 172.400 291.866,173.344 291.600,174.498 291.463 C 175.651 291.326,176.656 291.031,176.731 290.807 C 176.806 290.583,177.392 290.400,178.033 290.400 C 178.675 290.400,179.200 290.220,179.200 290.000 C 179.200 289.780,179.560 289.600,180.000 289.600 C 180.440 289.600,180.800 289.420,180.800 289.200 C 180.800 288.980,181.340 288.800,182.000 288.800 C 182.660 288.800,183.200 288.620,183.200 288.400 C 183.200 288.180,183.639 288.000,184.176 288.000 C 184.713 288.000,185.264 287.820,185.400 287.600 C 185.536 287.380,185.997 287.200,186.424 287.200 C 186.851 287.200,187.200 287.020,187.200 286.800 C 187.200 286.580,187.650 286.400,188.200 286.400 C 188.750 286.400,189.200 286.220,189.200 286.000 C 189.200 285.780,189.470 285.600,189.800 285.600 C 190.130 285.600,190.400 285.420,190.400 285.200 C 190.400 284.980,190.810 284.800,191.312 284.800 C 191.813 284.800,192.483 284.440,192.800 284.000 C 193.118 283.559,193.835 283.200,194.400 283.200 C 194.965 283.200,195.682 282.841,196.000 282.400 C 196.596 281.574,198.000 281.293,198.000 282.000 C 198.000 282.220,197.820 282.400,197.600 282.400 C 197.380 282.400,197.200 282.760,197.200 283.200 C 197.200 283.640,197.020 284.000,196.800 284.000 C 196.580 284.000,196.400 284.360,196.400 284.800 C 196.400 285.240,196.220 285.600,196.000 285.600 C 195.780 285.600,195.600 285.960,195.600 286.400 C 195.600 286.840,195.420 287.200,195.200 287.200 C 194.980 287.200,194.800 287.520,194.800 287.912 C 194.800 288.303,194.440 288.883,194.000 289.200 C 193.560 289.517,193.200 290.097,193.200 290.488 C 193.200 290.880,193.059 291.200,192.886 291.200 C 192.714 291.200,192.230 291.785,191.811 292.500 C 191.392 293.215,190.544 294.277,189.925 294.860 C 189.306 295.444,188.800 296.133,188.800 296.392 C 188.800 296.651,188.080 297.554,187.200 298.400 C 186.320 299.246,185.600 300.134,185.600 300.374 C 185.600 301.046,178.893 307.600,178.206 307.600 C 177.873 307.600,177.600 307.870,177.600 308.200 C 177.600 308.530,177.364 308.800,177.076 308.800 C 176.788 308.800,175.933 309.516,175.176 310.391 C 174.419 311.266,173.561 311.986,173.269 311.991 C 172.976 311.996,172.046 312.720,171.200 313.600 C 170.354 314.480,169.379 315.200,169.031 315.200 C 168.684 315.200,168.400 315.380,168.400 315.600 C 168.400 315.820,168.080 316.000,167.688 316.000 C 167.297 316.000,166.717 316.360,166.400 316.800 C 166.083 317.240,165.543 317.600,165.200 317.600 C 164.857 317.600,164.317 317.960,164.000 318.400 C 163.682 318.841,162.965 319.200,162.400 319.200 C 161.835 319.200,161.118 319.559,160.800 320.000 C 160.483 320.440,159.915 320.800,159.539 320.800 C 159.162 320.800,158.740 321.160,158.600 321.600 C 158.422 322.160,157.995 322.400,157.173 322.400 C 156.528 322.400,156.000 322.580,156.000 322.800 C 156.000 323.020,155.640 323.200,155.200 323.200 C 154.760 323.200,154.400 323.380,154.400 323.600 C 154.400 323.820,154.040 324.000,153.600 324.000 C 153.160 324.000,152.800 324.177,152.800 324.392 C 152.800 324.608,152.305 324.891,151.700 325.020 C 149.114 325.572,147.200 326.196,147.200 326.487 C 147.200 326.659,146.840 326.800,146.400 326.800 C 145.960 326.800,145.600 326.980,145.600 327.200 C 145.600 327.420,145.096 327.600,144.480 327.600 C 143.264 327.600,141.208 328.416,141.203 328.900 C 141.201 329.065,140.557 329.200,139.771 329.200 C 138.259 329.200,137.200 329.929,137.200 330.971 C 137.200 331.487,137.739 331.600,140.200 331.600 C 141.933 331.600,143.200 331.431,143.200 331.200 C 143.200 330.963,144.667 330.800,146.800 330.800 C 148.933 330.800,150.400 330.637,150.400 330.400 C 150.400 330.164,151.835 330.000,153.904 330.000 C 156.974 330.000,157.469 329.901,157.907 329.200 C 158.323 328.533,158.840 328.400,161.003 328.400 C 162.468 328.400,163.600 328.226,163.600 328.000 C 163.600 327.780,163.960 327.600,164.400 327.600 C 164.840 327.600,165.200 327.420,165.200 327.200 C 165.200 326.980,165.920 326.800,166.800 326.800 C 167.680 326.800,168.400 326.620,168.400 326.400 C 168.400 326.180,168.760 326.000,169.200 326.000 C 169.640 326.000,170.000 325.844,170.000 325.654 C 170.000 325.464,170.848 325.192,171.885 325.050 C 173.921 324.771,176.000 323.989,176.000 323.502 C 176.000 323.336,176.360 323.200,176.800 323.200 C 177.240 323.200,177.600 323.020,177.600 322.800 C 177.600 322.580,177.960 322.400,178.400 322.400 C 178.840 322.400,179.200 322.220,179.200 322.000 C 179.200 321.780,179.560 321.600,180.000 321.600 C 180.440 321.600,180.800 321.420,180.800 321.200 C 180.800 320.980,181.160 320.800,181.600 320.800 C 182.040 320.800,182.400 320.620,182.400 320.400 C 182.400 320.180,182.867 320.000,183.437 320.000 C 184.138 320.000,184.543 319.741,184.684 319.200 C 184.827 318.653,185.230 318.400,185.958 318.400 C 186.565 318.400,187.272 318.055,187.600 317.600 C 187.917 317.160,188.457 316.800,188.800 316.800 C 189.143 316.800,189.683 316.440,190.000 316.000 C 190.317 315.560,190.767 315.200,191.000 315.200 C 191.233 315.200,191.683 314.840,192.000 314.400 C 192.317 313.960,192.825 313.600,193.128 313.600 C 193.431 313.600,194.183 313.060,194.800 312.400 C 195.417 311.740,196.137 311.200,196.400 311.200 C 196.663 311.200,197.358 310.687,197.945 310.059 C 198.531 309.432,199.629 308.599,200.385 308.208 C 202.107 307.317,202.800 306.634,202.800 305.829 C 202.800 305.483,203.115 305.190,203.500 305.178 C 203.885 305.166,205.010 304.260,206.000 303.166 C 206.990 302.071,208.565 300.375,209.500 299.398 C 210.435 298.421,211.200 297.425,211.200 297.185 C 211.200 296.944,212.100 295.871,213.200 294.800 C 214.300 293.729,215.200 292.570,215.200 292.226 C 215.200 291.882,215.352 291.600,215.539 291.600 C 216.092 291.600,217.600 290.146,217.600 289.614 C 217.600 289.343,218.140 288.617,218.800 288.000 C 219.538 287.311,220.000 286.479,220.000 285.840 C 220.000 285.067,220.205 284.800,220.800 284.800 C 221.333 284.800,221.600 284.533,221.600 284.000 C 221.600 283.560,221.780 283.200,222.000 283.200 C 222.220 283.200,222.400 282.840,222.400 282.400 C 222.400 281.960,222.580 281.600,222.800 281.600 C 223.020 281.600,223.200 281.322,223.200 280.983 C 223.200 280.644,223.551 279.990,223.980 279.529 C 224.409 279.069,224.883 278.131,225.034 277.446 C 225.184 276.761,225.643 275.909,226.054 275.553 C 226.464 275.197,226.800 274.562,226.800 274.141 C 226.800 273.721,227.160 273.117,227.600 272.800 C 228.040 272.483,228.400 271.903,228.400 271.512 C 228.400 271.120,228.580 270.800,228.800 270.800 C 229.020 270.800,229.200 270.440,229.200 270.000 C 229.200 269.560,229.380 269.200,229.600 269.200 C 229.820 269.200,230.000 268.700,230.000 268.088 C 230.000 267.435,230.330 266.739,230.800 266.400 C 231.270 266.061,231.600 265.365,231.600 264.712 C 231.600 264.100,231.780 263.600,232.000 263.600 C 232.220 263.600,232.400 263.240,232.400 262.800 C 232.400 262.360,232.580 262.000,232.800 262.000 C 233.020 262.000,233.200 261.460,233.200 260.800 C 233.200 260.140,233.380 259.600,233.600 259.600 C 233.820 259.600,234.000 259.240,234.000 258.800 C 234.000 258.360,234.180 258.000,234.400 258.000 C 234.620 258.000,234.800 257.550,234.800 257.000 C 234.800 256.450,234.980 256.000,235.200 256.000 C 235.420 256.000,235.600 255.460,235.600 254.800 C 235.600 254.140,235.780 253.600,236.000 253.600 C 236.220 253.600,236.400 253.240,236.400 252.800 C 236.400 252.360,236.580 252.000,236.800 252.000 C 237.020 252.000,237.200 251.471,237.200 250.824 C 237.200 250.177,237.380 249.536,237.600 249.400 C 237.820 249.264,238.000 248.713,238.000 248.176 C 238.000 247.639,238.180 247.200,238.400 247.200 C 238.620 247.200,238.800 246.660,238.800 246.000 C 238.800 245.340,238.980 244.800,239.200 244.800 C 239.420 244.800,239.600 244.260,239.600 243.600 C 239.600 242.940,239.780 242.400,240.000 242.400 C 240.220 242.400,240.400 241.806,240.400 241.080 C 240.400 240.354,240.588 239.572,240.818 239.342 C 241.048 239.112,241.344 237.636,241.476 236.062 C 241.608 234.488,241.870 233.200,242.058 233.200 C 242.246 233.200,242.400 232.300,242.400 231.200 C 242.400 230.100,242.580 229.200,242.800 229.200 C 243.020 229.200,243.200 228.210,243.200 227.000 C 243.200 225.790,243.380 224.800,243.600 224.800 C 243.822 224.800,244.000 223.733,244.000 222.400 C 244.000 221.067,244.178 220.000,244.400 220.000 C 244.629 220.000,244.800 218.800,244.800 217.200 C 244.800 215.600,244.971 214.400,245.200 214.400 C 245.433 214.400,245.600 213.067,245.600 211.200 C 245.600 209.333,245.767 208.000,246.000 208.000 C 246.235 208.000,246.400 206.600,246.400 204.600 C 246.400 202.600,246.565 201.200,246.800 201.200 C 247.022 201.200,247.200 200.133,247.200 198.800 L 247.200 196.400 245.803 196.400 C 244.773 196.400,244.106 196.715,243.260 197.600 C 242.629 198.260,241.908 198.800,241.657 198.800 C 241.406 198.800,241.200 198.980,241.200 199.200 C 241.200 199.420,240.840 199.600,240.400 199.600 C 239.960 199.600,239.600 199.780,239.600 200.000 C 239.600 200.220,239.240 200.400,238.800 200.400 C 238.360 200.400,238.000 200.580,238.000 200.800 C 238.000 201.020,237.460 201.200,236.800 201.200 C 236.140 201.200,235.600 201.380,235.600 201.600 C 235.600 201.820,235.240 202.000,234.800 202.000 C 234.360 202.000,234.000 202.180,234.000 202.400 C 234.000 202.620,233.640 202.800,233.200 202.800 C 232.760 202.800,232.400 202.980,232.400 203.200 C 232.400 203.420,232.040 203.600,231.600 203.600 C 231.160 203.600,230.800 203.780,230.800 204.000 C 230.800 204.220,230.440 204.400,230.000 204.400 C 229.560 204.400,229.200 204.580,229.200 204.800 C 229.200 205.020,228.480 205.200,227.600 205.200 C 226.720 205.200,226.000 205.380,226.000 205.600 C 226.000 205.820,225.730 206.000,225.400 206.000 C 225.070 206.000,224.800 206.180,224.800 206.400 C 224.800 206.620,224.326 206.800,223.747 206.800 C 223.168 206.800,222.403 207.132,222.047 207.537 C 221.590 208.058,220.587 208.348,218.628 208.528 C 217.104 208.669,215.673 208.967,215.448 209.192 C 215.224 209.416,214.356 209.600,213.520 209.600 C 212.684 209.600,212.000 209.780,212.000 210.000 C 212.000 210.220,211.370 210.400,210.600 210.400 C 209.830 210.400,209.200 210.580,209.200 210.800 C 209.200 211.022,208.133 211.200,206.800 211.200 C 205.467 211.200,204.400 211.378,204.400 211.600 C 204.400 211.820,203.601 212.000,202.624 212.000 C 201.647 212.000,200.736 212.180,200.600 212.400 C 200.464 212.620,198.743 212.800,196.776 212.800 C 194.659 212.800,193.200 212.963,193.200 213.200 C 193.200 213.455,189.875 213.600,184.024 213.600 C 178.337 213.600,174.753 213.448,174.600 213.200 C 174.463 212.979,172.663 212.800,170.576 212.800 C 168.325 212.800,166.800 212.638,166.800 212.400 C 166.800 212.178,165.733 212.000,164.400 212.000 C 163.067 212.000,162.000 211.822,162.000 211.600 C 162.000 211.380,161.021 211.200,159.824 211.200 C 158.627 211.200,157.536 211.020,157.400 210.800 C 157.264 210.580,156.353 210.400,155.376 210.400 C 154.399 210.400,153.600 210.220,153.600 210.000 C 153.600 209.780,152.958 209.600,152.174 209.600 C 151.389 209.600,150.425 209.428,150.032 209.217 C 149.638 209.007,148.120 208.712,146.658 208.562 C 143.504 208.239,143.104 208.944,145.200 211.137 C 145.860 211.828,146.400 212.577,146.400 212.803 C 146.400 213.360,152.273 219.200,152.833 219.200 C 153.078 219.200,153.783 219.740,154.400 220.400 C 155.017 221.060,155.743 221.600,156.014 221.600 C 156.284 221.600,156.797 221.928,157.153 222.328 C 157.509 222.729,158.925 223.583,160.300 224.228 C 161.675 224.872,162.800 225.534,162.800 225.699 C 162.800 225.865,163.300 226.000,163.912 226.000 C 164.565 226.000,165.261 226.330,165.600 226.800 C 166.032 227.399,166.635 227.600,168.000 227.600 C 169.365 227.600,169.968 227.801,170.400 228.400 C 170.838 229.008,171.435 229.200,172.888 229.200 C 173.940 229.200,174.800 229.380,174.800 229.600 C 174.800 229.820,175.250 230.000,175.800 230.000 C 176.350 230.000,176.800 230.180,176.800 230.400 C 176.800 230.620,177.520 230.800,178.400 230.800 C 179.280 230.800,180.000 230.980,180.000 231.200 C 180.000 231.422,181.067 231.600,182.400 231.600 C 183.733 231.600,184.800 231.778,184.800 232.000 C 184.800 232.243,186.600 232.400,189.400 232.400 C 192.200 232.400,194.000 232.557,194.000 232.800 C 194.000 233.020,194.540 233.200,195.200 233.200 C 195.860 233.200,196.400 233.020,196.400 232.800 C 196.400 232.558,198.133 232.400,200.800 232.400 C 203.467 232.400,205.200 232.242,205.200 232.000 C 205.200 231.780,206.190 231.600,207.400 231.600 C 208.610 231.600,209.600 231.420,209.600 231.200 C 209.600 230.980,210.320 230.800,211.200 230.800 C 212.080 230.800,212.800 230.620,212.800 230.400 C 212.800 230.180,213.340 230.000,214.000 230.000 C 214.660 230.000,215.200 229.820,215.200 229.600 C 215.200 229.380,215.920 229.200,216.800 229.200 C 217.680 229.200,218.400 229.020,218.400 228.800 C 218.400 228.580,218.760 228.400,219.200 228.400 C 219.640 228.400,220.000 228.580,220.000 228.800 C 220.000 229.020,219.820 229.200,219.600 229.200 C 219.380 229.200,219.200 230.100,219.200 231.200 C 219.200 232.300,219.020 233.200,218.800 233.200 C 218.580 233.200,218.400 234.100,218.400 235.200 C 218.400 236.300,218.220 237.200,218.000 237.200 C 217.780 237.200,217.600 237.920,217.600 238.800 C 217.600 239.680,217.420 240.400,217.200 240.400 C 216.980 240.400,216.800 240.850,216.800 241.400 C 216.800 241.950,216.620 242.400,216.400 242.400 C 216.180 242.400,216.000 242.940,216.000 243.600 C 216.000 244.260,215.820 244.800,215.600 244.800 C 215.380 244.800,215.200 245.340,215.200 246.000 C 215.200 246.660,215.020 247.200,214.800 247.200 C 214.580 247.200,214.400 247.560,214.400 248.000 C 214.400 248.645,214.133 248.800,213.024 248.800 C 212.267 248.800,211.536 248.980,211.400 249.200 C 211.264 249.420,210.724 249.600,210.200 249.600 C 209.676 249.600,209.136 249.780,209.000 250.000 C 208.864 250.220,208.173 250.400,207.465 250.400 C 206.635 250.400,205.971 250.685,205.600 251.200 C 205.142 251.835,204.565 252.000,202.800 252.000 C 201.035 252.000,200.458 252.165,200.000 252.800 C 199.521 253.465,198.965 253.600,196.712 253.600 C 195.171 253.600,194.000 253.773,194.000 254.000 C 194.000 254.220,193.550 254.400,193.000 254.400 C 192.450 254.400,192.000 254.580,192.000 254.800 C 192.000 255.029,190.800 255.200,189.200 255.200 C 187.600 255.200,186.400 255.371,186.400 255.600 C 186.400 255.820,185.500 256.000,184.400 256.000 C 183.300 256.000,182.400 256.180,182.400 256.400 C 182.400 256.635,181.000 256.800,179.000 256.800 C 177.000 256.800,175.600 256.965,175.600 257.200 C 175.600 257.442,173.867 257.600,171.200 257.600 C 168.533 257.600,166.800 257.758,166.800 258.000 C 166.800 258.255,163.400 258.400,157.400 258.400 C 151.400 258.400,148.000 258.255,148.000 258.000 C 148.000 257.761,146.467 257.600,144.200 257.600 C 141.933 257.600,140.400 257.439,140.400 257.200 C 140.400 256.963,138.933 256.800,136.800 256.800 C 134.667 256.800,133.200 256.637,133.200 256.400 C 133.200 256.180,132.300 256.000,131.200 256.000 C 130.100 256.000,129.200 255.820,129.200 255.600 C 129.200 255.380,128.300 255.200,127.200 255.200 C 126.100 255.200,125.200 255.020,125.200 254.800 C 125.200 254.580,124.750 254.400,124.200 254.400 C 123.650 254.400,123.200 254.220,123.200 254.000 C 123.200 253.780,122.300 253.600,121.200 253.600 C 120.100 253.600,119.200 253.420,119.200 253.200 C 119.200 252.980,118.660 252.800,118.000 252.800 C 117.340 252.800,116.800 252.620,116.800 252.400 C 116.800 252.180,115.940 252.000,114.888 252.000 C 113.435 252.000,112.838 251.808,112.400 251.200 C 111.998 250.643,111.365 250.400,110.312 250.400 C 109.480 250.400,108.800 250.220,108.800 250.000 C 108.800 249.780,108.350 249.600,107.800 249.600 C 107.250 249.600,106.800 249.420,106.800 249.200 C 106.800 248.980,106.260 248.800,105.600 248.800 C 104.940 248.800,104.400 248.620,104.400 248.400 C 104.400 248.180,104.040 248.000,103.600 248.000 C 103.160 248.000,102.800 247.820,102.800 247.600 C 102.800 247.380,102.440 247.200,102.000 247.200 C 101.560 247.200,101.200 247.020,101.200 246.800 C 101.200 246.580,100.840 246.400,100.400 246.400 C 99.960 246.400,99.600 246.220,99.600 246.000 C 99.600 245.780,99.240 245.600,98.800 245.600 C 98.360 245.600,98.000 245.420,98.000 245.200 C 98.000 244.980,97.680 244.800,97.288 244.800 C 96.897 244.800,96.317 244.440,96.000 244.000 C 95.661 243.530,94.965 243.200,94.312 243.200 C 93.700 243.200,93.200 243.048,93.200 242.863 C 93.200 242.678,92.570 242.187,91.800 241.772 C 91.030 241.357,90.400 240.879,90.400 240.709 C 90.400 240.539,90.080 240.400,89.688 240.400 C 89.297 240.400,88.717 240.040,88.400 239.600 C 88.083 239.160,87.575 238.800,87.272 238.800 C 86.969 238.800,86.217 238.260,85.600 237.600 C 84.983 236.940,84.279 236.400,84.034 236.400 C 83.357 236.400,76.800 229.698,76.800 229.006 C 76.800 228.667,76.448 228.400,76.000 228.400 C 75.484 228.400,75.200 228.133,75.200 227.649 C 75.200 227.236,74.930 226.674,74.600 226.400 C 74.270 226.126,74.000 225.694,74.000 225.439 C 74.000 225.185,73.640 224.717,73.200 224.400 C 72.760 224.083,72.400 223.503,72.400 223.112 C 72.400 222.720,72.220 222.400,72.000 222.400 C 71.780 222.400,71.600 222.080,71.600 221.688 C 71.600 221.297,71.240 220.717,70.800 220.400 C 70.360 220.083,70.000 219.503,70.000 219.112 C 70.000 218.720,69.820 218.400,69.600 218.400 C 69.380 218.400,69.200 218.040,69.200 217.600 C 69.200 217.160,69.020 216.800,68.800 216.800 C 68.580 216.800,68.400 216.440,68.400 216.000 C 68.400 215.560,68.220 215.200,68.000 215.200 C 67.780 215.200,67.600 214.660,67.600 214.000 C 67.600 213.340,67.420 212.800,67.200 212.800 C 66.980 212.800,66.800 212.440,66.800 212.000 C 66.800 211.560,66.620 211.200,66.400 211.200 C 66.180 211.200,66.000 210.660,66.000 210.000 C 66.000 209.340,65.820 208.800,65.600 208.800 C 65.380 208.800,65.200 207.990,65.200 207.000 C 65.200 206.010,65.020 205.200,64.800 205.200 C 64.580 205.200,64.400 204.480,64.400 203.600 C 64.400 202.720,64.220 202.000,64.000 202.000 C 63.755 202.000,63.600 200.067,63.600 197.000 C 63.600 193.933,63.445 192.000,63.200 192.000 C 62.980 192.000,62.800 191.100,62.800 190.000 C 62.800 188.900,62.980 188.000,63.200 188.000 C 63.448 188.000,63.600 185.867,63.600 182.400 C 63.600 178.933,63.752 176.800,64.000 176.800 C 64.220 176.800,64.400 176.361,64.400 175.824 C 64.400 175.287,64.580 174.736,64.800 174.600 C 65.020 174.464,65.200 173.373,65.200 172.176 C 65.200 170.979,65.380 170.000,65.600 170.000 C 65.820 170.000,66.000 169.280,66.000 168.400 C 66.000 167.520,66.180 166.800,66.400 166.800 C 66.620 166.800,66.800 166.260,66.800 165.600 C 66.800 164.940,66.980 164.400,67.200 164.400 C 67.420 164.400,67.600 163.860,67.600 163.200 C 67.600 162.540,67.780 162.000,68.000 162.000 C 68.220 162.000,68.400 161.460,68.400 160.800 C 68.400 160.140,68.580 159.600,68.800 159.600 C 69.020 159.600,69.200 159.150,69.200 158.600 C 69.200 158.050,69.380 157.600,69.600 157.600 C 69.820 157.600,70.000 157.240,70.000 156.800 C 70.000 156.360,70.180 156.000,70.400 156.000 C 70.620 156.000,70.800 155.640,70.800 155.200 C 70.800 154.760,70.980 154.400,71.200 154.400 C 71.420 154.400,71.600 154.051,71.600 153.624 C 71.600 153.197,71.780 152.736,72.000 152.600 C 72.220 152.464,72.400 151.913,72.400 151.376 C 72.400 150.839,72.580 150.400,72.800 150.400 C 73.020 150.400,73.200 150.040,73.200 149.600 C 73.200 149.160,73.380 148.800,73.600 148.800 C 73.820 148.800,74.000 148.440,74.000 148.000 C 74.000 147.560,74.164 147.200,74.365 147.200 C 74.566 147.200,74.846 146.512,74.988 145.672 C 75.130 144.831,75.596 143.891,76.023 143.583 C 76.450 143.275,76.800 142.703,76.800 142.312 C 76.800 141.920,76.980 141.600,77.200 141.600 C 77.420 141.600,77.600 141.370,77.600 141.088 C 77.600 140.807,77.960 140.317,78.400 140.000 C 78.840 139.683,79.200 139.103,79.200 138.712 C 79.200 138.320,79.380 138.000,79.600 138.000 C 79.820 138.000,80.000 137.680,80.000 137.288 C 80.000 136.897,80.360 136.317,80.800 136.000 C 81.240 135.683,81.600 135.175,81.600 134.872 C 81.600 134.569,82.140 133.817,82.800 133.200 C 83.460 132.583,84.000 131.791,84.000 131.440 C 84.000 131.088,84.180 130.800,84.400 130.800 C 84.620 130.800,84.800 130.517,84.800 130.171 C 84.800 129.363,85.763 128.400,86.571 128.400 C 86.933 128.400,87.200 128.061,87.200 127.600 C 87.200 127.160,87.380 126.800,87.600 126.800 C 87.820 126.800,88.000 126.518,88.000 126.174 C 88.000 125.830,88.540 125.094,89.200 124.539 C 89.860 123.983,90.400 123.290,90.400 122.999 C 90.400 122.707,92.470 120.379,95.000 117.826 C 97.530 115.272,99.600 113.002,99.600 112.781 C 99.600 112.560,100.391 111.588,101.357 110.622 C 102.954 109.025,103.686 108.507,106.650 106.878 C 107.173 106.591,107.600 106.096,107.600 105.778 C 107.600 105.460,107.870 105.200,108.200 105.200 C 108.533 105.200,108.800 104.844,108.800 104.400 C 108.800 103.941,109.067 103.600,109.426 103.600 C 109.770 103.600,110.929 102.700,112.000 101.600 C 113.071 100.500,114.158 99.600,114.414 99.600 C 114.670 99.600,115.383 99.060,116.000 98.400 C 116.617 97.740,117.337 97.200,117.600 97.200 C 117.863 97.200,118.583 96.660,119.200 96.000 C 119.817 95.340,120.569 94.800,120.872 94.800 C 121.175 94.800,121.683 94.440,122.000 94.000 C 122.317 93.560,122.857 93.200,123.200 93.200 C 123.543 93.200,124.083 92.840,124.400 92.400 C 124.717 91.960,125.185 91.600,125.439 91.600 C 125.694 91.600,126.126 91.330,126.400 91.000 C 126.674 90.670,127.196 90.400,127.561 90.400 C 127.925 90.400,128.483 90.040,128.800 89.600 C 129.117 89.160,129.625 88.800,129.928 88.800 C 130.231 88.800,130.983 88.260,131.600 87.600 C 132.217 86.940,133.009 86.400,133.360 86.400 C 133.712 86.400,134.000 86.220,134.000 86.000 C 134.000 85.780,134.320 85.600,134.712 85.600 C 135.103 85.600,135.683 85.240,136.000 84.800 C 136.317 84.360,136.897 84.000,137.288 84.000 C 137.680 84.000,138.000 83.820,138.000 83.600 C 138.000 83.380,138.500 83.200,139.112 83.200 C 139.765 83.200,140.461 82.870,140.800 82.400 C 141.117 81.960,141.787 81.600,142.288 81.600 C 142.933 81.600,143.200 81.366,143.200 80.800 C 143.200 80.192,143.467 80.000,144.312 80.000 C 144.965 80.000,145.661 79.670,146.000 79.200 C 146.317 78.760,146.897 78.400,147.288 78.400 C 147.680 78.400,148.000 78.220,148.000 78.000 C 148.000 77.780,148.360 77.600,148.800 77.600 C 149.240 77.600,149.600 77.420,149.600 77.200 C 149.600 76.980,149.960 76.800,150.400 76.800 C 150.840 76.800,151.200 76.620,151.200 76.400 C 151.200 76.180,151.560 76.000,152.000 76.000 C 152.440 76.000,152.800 75.820,152.800 75.600 C 152.800 75.380,153.318 75.200,153.951 75.200 C 154.584 75.200,155.326 74.930,155.600 74.600 C 155.874 74.270,156.425 74.000,156.825 74.000 C 157.225 74.000,157.664 73.820,157.800 73.600 C 157.936 73.380,158.397 73.200,158.824 73.200 C 159.251 73.200,159.600 73.020,159.600 72.800 C 159.600 72.580,159.960 72.400,160.400 72.400 C 160.840 72.400,161.200 72.220,161.200 72.000 C 161.200 71.780,161.880 71.600,162.712 71.600 C 163.765 71.600,164.398 71.357,164.800 70.800 C 165.139 70.330,165.835 70.000,166.488 70.000 C 167.100 70.000,167.600 69.820,167.600 69.600 C 167.600 69.380,167.960 69.200,168.400 69.200 C 168.840 69.200,169.200 69.020,169.200 68.800 C 169.200 68.580,169.740 68.400,170.400 68.400 C 171.060 68.400,171.600 68.220,171.600 68.000 C 171.600 67.780,172.039 67.600,172.576 67.600 C 173.113 67.600,173.664 67.420,173.800 67.200 C 173.936 66.980,174.487 66.800,175.024 66.800 C 175.561 66.800,176.000 66.620,176.000 66.400 C 176.000 66.180,176.360 66.000,176.800 66.000 C 177.240 66.000,177.600 65.820,177.600 65.600 C 177.600 65.380,178.320 65.200,179.200 65.200 C 180.080 65.200,180.800 65.020,180.800 64.800 C 180.800 64.580,181.160 64.400,181.600 64.400 C 182.040 64.400,182.400 64.220,182.400 64.000 C 182.400 63.780,183.120 63.600,184.000 63.600 C 185.333 63.600,185.600 63.467,185.600 62.800 C 185.600 62.067,185.333 62.000,182.400 62.000 C 180.533 62.000,179.200 62.167,179.200 62.400 " stroke="none" fill="#c2a263" fill-rule="evenodd"></path></g></svg>